<?xml version="1.0" encoding="UTF-8"?>
<svg xmlns="http://www.w3.org/2000/svg" xmlns:xlink="http://www.w3.org/1999/xlink" width="100px" height="86px" viewBox="0 0 99 86" version="1.1">
<g id="surface1">
<path style="opacity:1;fill:#000000;fill-opacity:0.50222224;stroke:none;stroke-width:22.67716599;stroke-linejoin:round;stroke-miterlimit:4;stroke-dasharray:none;stroke-opacity:1" d="M 25.925781 0.15625 C 25.953125 0.15625 25.980469 0.15625 26.007812 0.15625 C 26.390625 0.15625 26.773438 0.167969 27.15625 0.191406 C 27.28125 0.199219 27.402344 0.203125 27.527344 0.203125 C 27.738281 0.199219 27.941406 0.21875 28.148438 0.242188 C 28.222656 0.25 28.296875 0.253906 28.375 0.261719 C 28.703125 0.292969 29.03125 0.332031 29.359375 0.382812 C 29.457031 0.394531 29.554688 0.410156 29.652344 0.421875 C 29.9375 0.464844 30.222656 0.511719 30.507812 0.566406 C 30.582031 0.578125 30.65625 0.589844 30.730469 0.605469 C 31.152344 0.683594 31.574219 0.769531 31.988281 0.886719 C 32.042969 0.898438 32.097656 0.910156 32.152344 0.921875 C 32.355469 0.964844 32.550781 1.027344 32.746094 1.09375 C 32.851562 1.125 32.957031 1.148438 33.066406 1.167969 C 33.121094 1.1875 33.179688 1.207031 33.234375 1.226562 C 33.363281 1.269531 33.492188 1.308594 33.625 1.347656 C 33.796875 1.398438 33.960938 1.464844 34.125 1.535156 C 34.226562 1.570312 34.324219 1.601562 34.425781 1.632812 C 34.597656 1.683594 34.765625 1.746094 34.929688 1.816406 C 35.015625 1.851562 35.101562 1.882812 35.1875 1.914062 C 35.5625 2.054688 35.929688 2.214844 36.292969 2.378906 C 36.351562 2.402344 36.40625 2.429688 36.464844 2.453125 C 36.933594 2.660156 37.394531 2.878906 37.84375 3.128906 C 37.945312 3.1875 37.945312 3.1875 38.066406 3.226562 C 38.089844 3.253906 38.117188 3.277344 38.144531 3.304688 C 38.210938 3.335938 38.277344 3.363281 38.34375 3.386719 C 38.34375 3.414062 38.34375 3.441406 38.34375 3.46875 C 38.40625 3.480469 38.40625 3.480469 38.472656 3.496094 C 38.617188 3.539062 38.710938 3.609375 38.824219 3.710938 C 38.851562 3.710938 38.878906 3.710938 38.902344 3.710938 C 38.929688 3.734375 38.957031 3.761719 38.984375 3.789062 C 39.023438 3.804688 39.0625 3.816406 39.105469 3.832031 C 39.121094 3.847656 39.140625 3.867188 39.160156 3.886719 C 39.222656 3.957031 39.222656 3.957031 39.316406 3.988281 C 39.425781 4.03125 39.496094 4.082031 39.585938 4.15625 C 39.804688 4.332031 40.035156 4.488281 40.269531 4.644531 C 40.308594 4.671875 40.351562 4.699219 40.394531 4.730469 C 40.644531 4.898438 40.644531 4.898438 40.902344 5.050781 C 41.019531 5.117188 41.09375 5.183594 41.183594 5.28125 C 41.242188 5.332031 41.304688 5.382812 41.367188 5.429688 C 41.394531 5.453125 41.425781 5.480469 41.457031 5.503906 C 41.542969 5.570312 41.542969 5.570312 41.664062 5.605469 C 41.703125 5.644531 41.746094 5.683594 41.78125 5.726562 C 41.933594 5.863281 42.085938 5.980469 42.261719 6.089844 C 42.316406 6.140625 42.371094 6.195312 42.421875 6.25 C 42.460938 6.28125 42.5 6.3125 42.539062 6.347656 C 42.664062 6.449219 42.664062 6.449219 42.769531 6.558594 C 42.851562 6.652344 42.851562 6.652344 42.941406 6.6875 C 43.066406 6.757812 43.140625 6.867188 43.230469 6.980469 C 43.296875 7.058594 43.296875 7.058594 43.378906 7.09375 C 43.472656 7.140625 43.515625 7.1875 43.578125 7.269531 C 43.707031 7.421875 43.84375 7.566406 43.988281 7.707031 C 44.007812 7.730469 44.03125 7.753906 44.054688 7.777344 C 44.125 7.84375 44.191406 7.914062 44.261719 7.984375 C 44.539062 8.257812 44.8125 8.53125 45.0625 8.828125 C 45.121094 8.894531 45.179688 8.960938 45.238281 9.023438 C 45.425781 9.234375 45.605469 9.453125 45.78125 9.675781 C 45.804688 9.707031 45.832031 9.738281 45.855469 9.769531 C 46.21875 10.21875 46.5625 10.679688 46.898438 11.148438 C 46.917969 11.175781 46.941406 11.207031 46.960938 11.234375 C 47.089844 11.414062 47.210938 11.59375 47.328125 11.777344 C 47.382812 11.859375 47.382812 11.859375 47.460938 11.933594 C 47.5 12 47.535156 12.0625 47.574219 12.128906 C 47.683594 12.324219 47.800781 12.515625 47.917969 12.703125 C 48.1875 13.140625 48.441406 13.585938 48.6875 14.035156 C 49.023438 14.761719 49.023438 14.761719 49.539062 15.320312 C 49.550781 15.296875 49.5625 15.277344 49.574219 15.253906 C 49.625 15.152344 49.679688 15.050781 49.738281 14.953125 C 49.761719 14.910156 49.785156 14.871094 49.808594 14.832031 C 49.835938 14.789062 49.859375 14.746094 49.886719 14.703125 C 50.039062 14.433594 50.195312 14.167969 50.34375 13.898438 C 50.394531 13.808594 50.449219 13.71875 50.5 13.628906 C 50.523438 13.589844 50.523438 13.589844 50.542969 13.550781 C 50.832031 13.046875 51.144531 12.5625 51.464844 12.082031 C 51.496094 12.035156 51.496094 12.035156 51.527344 11.988281 C 51.875 11.457031 52.230469 10.933594 52.621094 10.433594 C 52.65625 10.390625 52.65625 10.390625 52.695312 10.339844 C 52.878906 10.105469 53.066406 9.867188 53.257812 9.636719 C 53.285156 9.605469 53.285156 9.605469 53.308594 9.574219 C 53.671875 9.136719 54.046875 8.71875 54.445312 8.316406 C 54.554688 8.210938 54.652344 8.097656 54.75 7.980469 C 54.871094 7.839844 55.003906 7.710938 55.136719 7.578125 C 55.167969 7.546875 55.167969 7.546875 55.199219 7.515625 C 55.257812 7.460938 55.316406 7.410156 55.378906 7.359375 C 55.589844 7.175781 55.78125 6.972656 55.976562 6.773438 C 56.058594 6.691406 56.058594 6.691406 56.15625 6.613281 C 56.253906 6.539062 56.253906 6.539062 56.316406 6.472656 C 56.390625 6.398438 56.472656 6.332031 56.554688 6.261719 C 56.613281 6.210938 56.675781 6.160156 56.734375 6.109375 C 56.84375 6.019531 56.957031 5.933594 57.074219 5.855469 C 57.140625 5.804688 57.199219 5.746094 57.257812 5.683594 C 57.355469 5.601562 57.445312 5.53125 57.558594 5.464844 C 57.664062 5.402344 57.664062 5.402344 57.757812 5.300781 C 57.847656 5.210938 57.90625 5.171875 58.015625 5.121094 C 58.113281 5.050781 58.199219 4.980469 58.285156 4.902344 C 58.402344 4.800781 58.527344 4.738281 58.667969 4.671875 C 58.742188 4.636719 58.742188 4.636719 58.816406 4.554688 C 58.839844 4.542969 58.867188 4.53125 58.890625 4.519531 C 58.980469 4.480469 58.980469 4.480469 59.050781 4.398438 C 59.136719 4.3125 59.222656 4.253906 59.332031 4.191406 C 59.382812 4.160156 59.382812 4.160156 59.4375 4.128906 C 59.515625 4.085938 59.59375 4.042969 59.671875 4.003906 C 59.773438 3.960938 59.773438 3.960938 59.832031 3.894531 C 59.90625 3.820312 59.976562 3.777344 60.066406 3.730469 C 60.117188 3.703125 60.117188 3.703125 60.164062 3.675781 C 60.238281 3.636719 60.308594 3.601562 60.382812 3.566406 C 60.5 3.507812 60.5 3.507812 60.617188 3.425781 C 60.722656 3.355469 60.820312 3.3125 60.933594 3.265625 C 60.988281 3.226562 60.988281 3.226562 61.046875 3.191406 C 61.175781 3.105469 61.300781 3.042969 61.445312 2.984375 C 61.539062 2.945312 61.539062 2.945312 61.628906 2.886719 C 61.757812 2.808594 61.890625 2.746094 62.023438 2.683594 C 62.050781 2.671875 62.078125 2.660156 62.105469 2.644531 C 62.273438 2.566406 62.441406 2.488281 62.613281 2.414062 C 62.667969 2.390625 62.726562 2.363281 62.78125 2.339844 C 63.003906 2.238281 63.226562 2.144531 63.453125 2.054688 C 63.488281 2.042969 63.519531 2.03125 63.554688 2.015625 C 63.761719 1.929688 63.972656 1.851562 64.183594 1.773438 C 64.257812 1.746094 64.332031 1.71875 64.40625 1.691406 C 64.582031 1.625 64.757812 1.5625 64.9375 1.511719 C 65.074219 1.472656 65.207031 1.421875 65.339844 1.367188 C 65.507812 1.296875 65.675781 1.25 65.851562 1.210938 C 65.976562 1.175781 66.101562 1.136719 66.226562 1.101562 C 66.421875 1.039062 66.613281 0.988281 66.808594 0.945312 C 66.882812 0.929688 66.957031 0.910156 67.03125 0.886719 C 67.175781 0.84375 67.320312 0.816406 67.472656 0.785156 C 67.566406 0.765625 67.660156 0.746094 67.753906 0.726562 C 67.910156 0.691406 68.070312 0.65625 68.230469 0.625 C 68.300781 0.613281 68.367188 0.597656 68.433594 0.582031 C 68.640625 0.539062 68.84375 0.507812 69.050781 0.484375 C 69.085938 0.476562 69.117188 0.46875 69.148438 0.464844 C 69.269531 0.441406 69.390625 0.425781 69.511719 0.414062 C 69.683594 0.394531 69.851562 0.371094 70.019531 0.34375 C 70.316406 0.296875 70.609375 0.269531 70.910156 0.25 C 71.03125 0.242188 71.148438 0.230469 71.269531 0.21875 C 71.472656 0.199219 71.671875 0.199219 71.875 0.203125 C 72.078125 0.203125 72.277344 0.195312 72.476562 0.179688 C 73.101562 0.140625 73.722656 0.15625 74.347656 0.191406 C 74.503906 0.199219 74.65625 0.203125 74.808594 0.203125 C 74.871094 0.207031 74.933594 0.210938 74.996094 0.214844 C 75.054688 0.222656 75.054688 0.222656 75.109375 0.226562 C 75.15625 0.234375 75.203125 0.238281 75.25 0.242188 C 75.3125 0.246094 75.371094 0.253906 75.433594 0.257812 C 76.175781 0.332031 76.914062 0.425781 77.648438 0.566406 C 77.6875 0.570312 77.722656 0.578125 77.761719 0.585938 C 77.992188 0.625 78.21875 0.671875 78.449219 0.726562 C 78.507812 0.738281 78.566406 0.753906 78.628906 0.765625 C 78.65625 0.773438 78.6875 0.78125 78.71875 0.785156 C 78.777344 0.800781 78.839844 0.8125 78.902344 0.828125 C 79.085938 0.867188 79.265625 0.914062 79.449219 0.96875 C 79.613281 1.015625 79.777344 1.0625 79.941406 1.105469 C 80.121094 1.15625 80.296875 1.207031 80.476562 1.261719 C 80.554688 1.285156 80.628906 1.308594 80.707031 1.328125 C 80.820312 1.363281 80.925781 1.402344 81.039062 1.449219 C 81.175781 1.507812 81.316406 1.550781 81.460938 1.589844 C 81.671875 1.644531 81.863281 1.722656 82.058594 1.808594 C 82.183594 1.863281 82.316406 1.898438 82.445312 1.933594 C 82.535156 1.972656 82.625 2.011719 82.710938 2.054688 C 82.808594 2.097656 82.90625 2.136719 83.007812 2.175781 C 83.164062 2.242188 83.320312 2.308594 83.476562 2.378906 C 83.535156 2.40625 83.59375 2.433594 83.65625 2.457031 C 83.882812 2.558594 84.105469 2.667969 84.324219 2.78125 C 84.4375 2.839844 84.550781 2.894531 84.664062 2.953125 C 84.707031 2.976562 84.707031 2.976562 84.746094 2.996094 C 84.859375 3.054688 84.96875 3.105469 85.085938 3.144531 C 85.113281 3.171875 85.136719 3.199219 85.164062 3.226562 C 85.285156 3.289062 85.398438 3.34375 85.527344 3.386719 C 85.550781 3.414062 85.578125 3.441406 85.605469 3.46875 C 85.683594 3.507812 85.765625 3.546875 85.84375 3.589844 C 85.914062 3.628906 85.980469 3.667969 86.046875 3.710938 C 86.078125 3.730469 86.109375 3.75 86.144531 3.769531 C 86.179688 3.789062 86.210938 3.808594 86.246094 3.832031 C 86.277344 3.847656 86.308594 3.867188 86.34375 3.886719 C 86.546875 4.015625 86.746094 4.152344 86.945312 4.289062 C 86.992188 4.324219 87.042969 4.359375 87.089844 4.390625 C 87.167969 4.441406 87.242188 4.496094 87.316406 4.546875 C 87.390625 4.597656 87.464844 4.648438 87.539062 4.699219 C 87.5625 4.714844 87.585938 4.730469 87.609375 4.746094 C 87.722656 4.824219 87.835938 4.898438 87.953125 4.964844 C 88.085938 5.042969 88.175781 5.128906 88.285156 5.242188 C 88.324219 5.253906 88.363281 5.269531 88.402344 5.28125 C 88.472656 5.347656 88.539062 5.417969 88.605469 5.484375 C 88.644531 5.496094 88.683594 5.511719 88.722656 5.523438 C 88.789062 5.589844 88.859375 5.65625 88.925781 5.726562 C 88.964844 5.738281 89.003906 5.75 89.042969 5.765625 C 89.085938 5.804688 89.125 5.84375 89.164062 5.886719 C 89.222656 5.933594 89.277344 5.984375 89.335938 6.03125 C 89.40625 6.089844 89.476562 6.152344 89.546875 6.210938 C 89.65625 6.308594 89.769531 6.398438 89.882812 6.492188 C 90.039062 6.617188 90.183594 6.75 90.324219 6.894531 C 90.351562 6.914062 90.375 6.933594 90.402344 6.953125 C 90.484375 7.015625 90.550781 7.082031 90.621094 7.15625 C 90.691406 7.222656 90.757812 7.292969 90.824219 7.359375 C 90.96875 7.503906 91.113281 7.648438 91.257812 7.792969 C 91.320312 7.855469 91.382812 7.917969 91.445312 7.980469 C 91.785156 8.316406 92.113281 8.652344 92.402344 9.03125 C 92.496094 9.148438 92.589844 9.261719 92.695312 9.363281 C 92.804688 9.480469 92.902344 9.597656 93 9.722656 C 93.019531 9.75 93.039062 9.773438 93.054688 9.796875 C 93.097656 9.851562 93.136719 9.902344 93.179688 9.957031 C 93.246094 10.042969 93.3125 10.128906 93.378906 10.214844 C 93.695312 10.617188 93.996094 11.027344 94.28125 11.449219 C 94.304688 11.488281 94.304688 11.488281 94.332031 11.523438 C 94.785156 12.191406 95.214844 12.875 95.597656 13.585938 C 95.644531 13.675781 95.695312 13.769531 95.75 13.859375 C 96.117188 14.527344 96.429688 15.214844 96.734375 15.914062 C 96.753906 15.957031 96.753906 15.957031 96.773438 16 C 97.121094 16.796875 97.121094 16.796875 97.121094 16.972656 C 97.148438 16.988281 97.171875 17 97.199219 17.015625 C 97.214844 17.109375 97.226562 17.203125 97.242188 17.296875 C 97.265625 17.308594 97.292969 17.324219 97.320312 17.335938 C 97.355469 17.4375 97.386719 17.535156 97.417969 17.640625 C 97.4375 17.699219 97.453125 17.757812 97.472656 17.816406 C 97.480469 17.847656 97.488281 17.875 97.496094 17.90625 C 97.523438 17.992188 97.554688 18.082031 97.582031 18.171875 C 97.722656 18.589844 97.847656 19.019531 97.957031 19.449219 C 97.960938 19.476562 97.96875 19.503906 97.976562 19.53125 C 97.992188 19.589844 98.003906 19.648438 98.019531 19.703125 C 98.039062 19.789062 98.0625 19.878906 98.082031 19.964844 C 98.152344 20.242188 98.21875 20.523438 98.28125 20.804688 C 98.292969 20.859375 98.304688 20.914062 98.316406 20.96875 C 98.371094 21.21875 98.417969 21.472656 98.464844 21.726562 C 98.480469 21.8125 98.496094 21.894531 98.511719 21.980469 C 98.574219 22.328125 98.625 22.675781 98.660156 23.027344 C 98.671875 23.167969 98.691406 23.308594 98.710938 23.449219 C 98.980469 25.566406 98.878906 27.738281 98.574219 29.84375 C 98.5625 29.949219 98.558594 30.050781 98.558594 30.160156 C 98.546875 30.226562 98.535156 30.292969 98.519531 30.359375 C 98.507812 30.453125 98.492188 30.546875 98.480469 30.640625 C 98.453125 30.640625 98.425781 30.640625 98.398438 30.640625 C 98.410156 30.675781 98.417969 30.710938 98.425781 30.746094 C 98.441406 30.910156 98.40625 31.011719 98.359375 31.167969 C 98.339844 31.261719 98.324219 31.355469 98.304688 31.449219 C 98.253906 31.710938 98.191406 31.964844 98.121094 32.21875 C 98.078125 32.386719 98.039062 32.554688 98 32.722656 C 97.933594 33.015625 97.851562 33.300781 97.761719 33.585938 C 97.753906 33.609375 97.746094 33.632812 97.738281 33.660156 C 97.28125 35.042969 96.773438 36.394531 96.121094 37.699219 C 96.101562 37.738281 96.082031 37.78125 96.058594 37.820312 C 95.269531 39.410156 94.304688 40.933594 93.179688 42.304688 C 93.101562 42.398438 93.027344 42.496094 92.953125 42.589844 C 92.902344 42.652344 92.851562 42.714844 92.800781 42.777344 C 92.773438 42.8125 92.746094 42.847656 92.71875 42.882812 C 92.511719 43.144531 92.292969 43.390625 92.066406 43.636719 C 92.019531 43.6875 91.976562 43.738281 91.933594 43.785156 C 91.6875 44.066406 91.429688 44.328125 91.167969 44.589844 C 91.089844 44.667969 91.015625 44.746094 90.9375 44.824219 C 90.773438 44.988281 90.609375 45.152344 90.445312 45.316406 C 90.25 45.511719 90.058594 45.703125 89.867188 45.894531 C 89.792969 45.972656 89.714844 46.050781 89.640625 46.125 C 89.59375 46.171875 89.546875 46.21875 89.5 46.265625 C 89.476562 46.289062 89.457031 46.308594 89.433594 46.332031 C 89.324219 46.4375 89.324219 46.4375 89.242188 46.566406 C 89.21875 46.566406 89.191406 46.566406 89.164062 46.566406 C 89.164062 46.59375 89.164062 46.621094 89.164062 46.648438 C 89.136719 46.648438 89.109375 46.648438 89.085938 46.648438 C 89.085938 46.675781 89.085938 46.703125 89.085938 46.730469 C 89.058594 46.730469 89.03125 46.730469 89.003906 46.730469 C 89.003906 46.757812 89.003906 46.78125 89.003906 46.808594 C 88.976562 46.808594 88.953125 46.808594 88.925781 46.808594 C 88.925781 46.835938 88.925781 46.863281 88.925781 46.890625 C 88.898438 46.890625 88.871094 46.890625 88.84375 46.890625 C 88.84375 46.917969 88.84375 46.945312 88.84375 46.972656 C 88.816406 46.972656 88.792969 46.972656 88.765625 46.972656 C 88.765625 46.996094 88.765625 47.023438 88.765625 47.050781 C 88.738281 47.050781 88.710938 47.050781 88.683594 47.050781 C 88.683594 47.078125 88.683594 47.105469 88.683594 47.132812 C 88.65625 47.132812 88.632812 47.132812 88.605469 47.132812 C 88.59375 47.15625 88.585938 47.175781 88.578125 47.199219 C 88.507812 47.324219 88.421875 47.40625 88.320312 47.507812 C 88.300781 47.527344 88.28125 47.550781 88.257812 47.570312 C 88.191406 47.640625 88.125 47.707031 88.054688 47.777344 C 88.007812 47.824219 87.960938 47.871094 87.914062 47.917969 C 87.8125 48.019531 87.714844 48.121094 87.613281 48.222656 C 87.484375 48.347656 87.359375 48.476562 87.230469 48.605469 C 87.132812 48.703125 87.035156 48.800781 86.9375 48.902344 C 86.890625 48.949219 86.84375 48.996094 86.796875 49.042969 C 86.730469 49.109375 86.664062 49.175781 86.597656 49.242188 C 86.578125 49.261719 86.558594 49.28125 86.542969 49.300781 C 86.4375 49.40625 86.328125 49.503906 86.214844 49.601562 C 86.0625 49.738281 85.914062 49.878906 85.773438 50.023438 C 85.746094 50.050781 85.722656 50.074219 85.695312 50.101562 C 85.609375 50.1875 85.527344 50.273438 85.441406 50.359375 C 85.378906 50.417969 85.320312 50.480469 85.257812 50.542969 C 85.128906 50.675781 84.996094 50.808594 84.867188 50.9375 C 84.660156 51.148438 84.453125 51.359375 84.246094 51.566406 C 83.804688 52.011719 83.367188 52.453125 82.925781 52.898438 C 82.453125 53.378906 81.976562 53.855469 81.503906 54.335938 C 81.296875 54.542969 81.089844 54.75 80.886719 54.960938 C 80.757812 55.089844 80.628906 55.21875 80.5 55.347656 C 80.441406 55.40625 80.382812 55.464844 80.324219 55.527344 C 80.242188 55.609375 80.160156 55.691406 80.082031 55.773438 C 80.058594 55.796875 80.035156 55.820312 80.011719 55.84375 C 79.867188 55.988281 79.71875 56.125 79.566406 56.257812 C 79.453125 56.355469 79.347656 56.464844 79.238281 56.570312 C 79.21875 56.59375 79.195312 56.617188 79.171875 56.640625 C 79.09375 56.71875 79.019531 56.792969 78.945312 56.871094 C 78.890625 56.925781 78.835938 56.980469 78.78125 57.035156 C 78.664062 57.152344 78.546875 57.269531 78.429688 57.390625 C 78.246094 57.578125 78.0625 57.765625 77.875 57.949219 C 77.347656 58.484375 76.824219 59.015625 76.296875 59.546875 C 76.007812 59.839844 75.714844 60.136719 75.425781 60.429688 C 75.242188 60.613281 75.058594 60.800781 74.875 60.984375 C 74.757812 61.101562 74.644531 61.21875 74.53125 61.332031 C 74.476562 61.386719 74.425781 61.441406 74.371094 61.492188 C 74.105469 61.761719 73.839844 62.019531 73.542969 62.257812 C 73.144531 62.578125 72.785156 62.957031 72.425781 63.320312 C 72.347656 63.402344 72.265625 63.484375 72.1875 63.566406 C 72.015625 63.734375 71.847656 63.90625 71.679688 64.078125 C 71.480469 64.277344 71.285156 64.480469 71.085938 64.679688 C 71.007812 64.757812 70.929688 64.835938 70.851562 64.914062 C 70.804688 64.964844 70.753906 65.015625 70.707031 65.0625 C 70.675781 65.09375 70.675781 65.09375 70.644531 65.128906 C 70.535156 65.238281 70.425781 65.339844 70.308594 65.441406 C 70.109375 65.617188 69.925781 65.800781 69.738281 65.992188 C 69.699219 66.03125 69.660156 66.070312 69.621094 66.109375 C 69.515625 66.214844 69.410156 66.320312 69.304688 66.429688 C 69.191406 66.542969 69.074219 66.660156 68.960938 66.777344 C 68.761719 66.976562 68.566406 67.175781 68.367188 67.375 C 68.082031 67.664062 67.796875 67.953125 67.507812 68.242188 C 67.042969 68.710938 66.578125 69.179688 66.113281 69.652344 C 66.085938 69.679688 66.058594 69.707031 66.03125 69.734375 C 65.636719 70.132812 65.242188 70.535156 64.847656 70.933594 C 64.816406 70.960938 64.789062 70.988281 64.761719 71.019531 C 64.734375 71.046875 64.707031 71.074219 64.675781 71.101562 C 64.214844 71.570312 63.75 72.039062 63.285156 72.507812 C 63 72.796875 62.714844 73.082031 62.429688 73.371094 C 62.234375 73.570312 62.039062 73.765625 61.84375 73.964844 C 61.730469 74.078125 61.617188 74.191406 61.503906 74.308594 C 61.402344 74.410156 61.296875 74.515625 61.195312 74.621094 C 61.140625 74.675781 61.085938 74.730469 61.027344 74.789062 C 60.996094 74.820312 60.964844 74.851562 60.929688 74.886719 C 60.902344 74.914062 60.875 74.945312 60.84375 74.972656 C 60.777344 75.035156 60.777344 75.035156 60.695312 75.035156 C 60.695312 75.058594 60.695312 75.085938 60.695312 75.113281 C 60.667969 75.113281 60.644531 75.113281 60.617188 75.113281 C 60.617188 75.140625 60.617188 75.167969 60.617188 75.195312 C 60.589844 75.195312 60.5625 75.195312 60.535156 75.195312 C 60.535156 75.222656 60.535156 75.246094 60.535156 75.273438 C 60.507812 75.273438 60.484375 75.273438 60.457031 75.273438 C 60.457031 75.300781 60.457031 75.328125 60.457031 75.355469 C 60.429688 75.355469 60.402344 75.355469 60.375 75.355469 C 60.375 75.382812 60.375 75.410156 60.375 75.4375 C 60.347656 75.4375 60.324219 75.4375 60.296875 75.4375 C 60.296875 75.464844 60.296875 75.488281 60.296875 75.515625 C 60.269531 75.515625 60.242188 75.515625 60.214844 75.515625 C 60.214844 75.542969 60.214844 75.570312 60.214844 75.597656 C 60.1875 75.597656 60.164062 75.597656 60.136719 75.597656 C 60.136719 75.625 60.136719 75.652344 60.136719 75.679688 C 60.109375 75.679688 60.082031 75.679688 60.054688 75.679688 C 60.054688 75.703125 60.054688 75.730469 60.054688 75.757812 C 60.03125 75.757812 60.003906 75.757812 59.976562 75.757812 C 59.976562 75.785156 59.976562 75.8125 59.976562 75.839844 C 59.925781 75.890625 59.925781 75.890625 59.847656 75.953125 C 59.59375 76.171875 59.363281 76.414062 59.125 76.652344 C 59.074219 76.707031 59.019531 76.761719 58.964844 76.8125 C 58.851562 76.929688 58.738281 77.042969 58.625 77.160156 C 58.445312 77.339844 58.265625 77.523438 58.085938 77.703125 C 57.703125 78.089844 57.320312 78.476562 56.9375 78.863281 C 56.523438 79.28125 56.109375 79.699219 55.699219 80.113281 C 55.519531 80.296875 55.339844 80.476562 55.160156 80.65625 C 55.050781 80.769531 54.9375 80.882812 54.828125 80.996094 C 54.777344 81.046875 54.722656 81.097656 54.671875 81.152344 C 54.203125 81.628906 54.203125 81.628906 53.960938 81.832031 C 53.855469 81.925781 53.757812 82.023438 53.660156 82.125 C 53.636719 82.148438 53.617188 82.167969 53.597656 82.191406 C 53.53125 82.257812 53.464844 82.324219 53.398438 82.390625 C 52.898438 82.902344 52.898438 82.902344 52.644531 83.121094 C 52.550781 83.203125 52.464844 83.289062 52.378906 83.378906 C 52.238281 83.523438 52.097656 83.65625 51.945312 83.789062 C 51.800781 83.914062 51.664062 84.042969 51.523438 84.171875 C 51.238281 84.425781 51.238281 84.425781 51.140625 84.425781 C 51.125 84.46875 51.113281 84.507812 51.097656 84.546875 C 51.046875 84.5625 50.992188 84.574219 50.9375 84.589844 C 50.925781 84.628906 50.914062 84.667969 50.898438 84.710938 C 50.847656 84.726562 50.792969 84.738281 50.738281 84.75 C 50.726562 84.777344 50.714844 84.804688 50.699219 84.832031 C 50.5 84.992188 50.308594 85.128906 50.058594 85.195312 C 50.03125 85.207031 50.003906 85.222656 49.976562 85.238281 C 49.882812 85.28125 49.804688 85.277344 49.699219 85.273438 C 49.6875 85.289062 49.671875 85.300781 49.660156 85.316406 C 49.539062 85.320312 49.457031 85.3125 49.339844 85.273438 C 49.308594 85.269531 49.277344 85.265625 49.246094 85.257812 C 49.121094 85.230469 49.015625 85.179688 48.898438 85.117188 C 48.859375 85.097656 48.820312 85.078125 48.777344 85.054688 C 48.554688 84.933594 48.554688 84.933594 48.460938 84.871094 C 48.460938 84.84375 48.460938 84.816406 48.460938 84.789062 C 48.394531 84.765625 48.328125 84.738281 48.261719 84.710938 C 48.261719 84.683594 48.261719 84.65625 48.261719 84.628906 C 48.195312 84.601562 48.128906 84.574219 48.0625 84.546875 C 48.0625 84.523438 48.0625 84.496094 48.0625 84.46875 C 47.996094 84.441406 47.929688 84.414062 47.859375 84.386719 C 47.859375 84.359375 47.859375 84.335938 47.859375 84.304688 C 47.835938 84.304688 47.808594 84.304688 47.78125 84.304688 C 47.78125 84.28125 47.78125 84.253906 47.78125 84.226562 C 47.714844 84.199219 47.648438 84.171875 47.582031 84.144531 C 47.582031 84.117188 47.582031 84.09375 47.582031 84.066406 C 47.554688 84.066406 47.527344 84.066406 47.5 84.066406 C 47.5 84.039062 47.5 84.011719 47.5 83.984375 C 47.464844 83.96875 47.464844 83.96875 47.429688 83.953125 C 47.339844 83.902344 47.289062 83.855469 47.222656 83.78125 C 47.179688 83.753906 47.140625 83.730469 47.101562 83.703125 C 47.082031 83.640625 47.082031 83.640625 47.0625 83.582031 C 47.007812 83.550781 46.957031 83.523438 46.902344 83.5 C 46.851562 83.460938 46.800781 83.421875 46.75 83.378906 C 46.726562 83.359375 46.703125 83.335938 46.675781 83.316406 C 46.621094 83.257812 46.621094 83.257812 46.621094 83.175781 C 46.582031 83.164062 46.542969 83.152344 46.5 83.136719 C 46.433594 83.070312 46.367188 83.003906 46.300781 82.9375 C 46.257812 82.890625 46.214844 82.847656 46.171875 82.804688 C 46.148438 82.78125 46.128906 82.757812 46.105469 82.734375 C 46.082031 82.710938 46.058594 82.691406 46.035156 82.667969 C 46.011719 82.644531 45.992188 82.621094 45.96875 82.59375 C 45.945312 82.574219 45.921875 82.550781 45.898438 82.527344 C 45.878906 82.507812 45.859375 82.488281 45.839844 82.464844 C 45.773438 82.402344 45.773438 82.402344 45.660156 82.332031 C 45.648438 82.292969 45.636719 82.25 45.621094 82.210938 C 45.582031 82.195312 45.542969 82.183594 45.5 82.167969 C 45.429688 82.105469 45.429688 82.105469 45.355469 82.027344 C 45.328125 82 45.296875 81.96875 45.269531 81.941406 C 45.226562 81.894531 45.226562 81.894531 45.183594 81.851562 C 45.125 81.789062 45.066406 81.730469 45.007812 81.671875 C 44.984375 81.644531 44.957031 81.621094 44.933594 81.59375 C 44.859375 81.515625 44.859375 81.515625 44.742188 81.445312 C 44.648438 81.359375 44.558594 81.277344 44.46875 81.191406 C 44.425781 81.152344 44.425781 81.152344 44.382812 81.109375 C 44 80.746094 43.632812 80.367188 43.261719 79.992188 C 43.234375 79.964844 43.210938 79.9375 43.183594 79.910156 C 43.136719 79.863281 43.085938 79.8125 43.039062 79.761719 C 42.921875 79.640625 42.921875 79.640625 42.78125 79.550781 C 42.78125 79.523438 42.78125 79.496094 42.78125 79.46875 C 42.742188 79.453125 42.703125 79.441406 42.664062 79.429688 C 42.648438 79.386719 42.636719 79.347656 42.621094 79.308594 C 42.582031 79.292969 42.542969 79.28125 42.503906 79.265625 C 42.488281 79.226562 42.476562 79.1875 42.460938 79.144531 C 42.421875 79.132812 42.382812 79.121094 42.34375 79.105469 C 42.328125 79.066406 42.316406 79.027344 42.304688 78.984375 C 42.261719 78.972656 42.222656 78.957031 42.183594 78.945312 C 42.167969 78.902344 42.15625 78.863281 42.144531 78.824219 C 42.101562 78.808594 42.0625 78.796875 42.023438 78.78125 C 41.96875 78.734375 41.914062 78.683594 41.863281 78.632812 C 41.832031 78.597656 41.796875 78.566406 41.765625 78.53125 C 41.726562 78.496094 41.691406 78.460938 41.65625 78.421875 C 41.617188 78.382812 41.578125 78.34375 41.539062 78.304688 C 41.433594 78.199219 41.328125 78.09375 41.222656 77.984375 C 41.109375 77.871094 40.996094 77.753906 40.878906 77.640625 C 40.683594 77.441406 40.484375 77.238281 40.289062 77.039062 C 40 76.75 39.714844 76.460938 39.429688 76.171875 C 38.964844 75.703125 38.5 75.234375 38.035156 74.765625 C 38.007812 74.738281 37.976562 74.707031 37.949219 74.679688 C 37.921875 74.652344 37.894531 74.621094 37.867188 74.59375 C 37.472656 74.195312 37.078125 73.796875 36.683594 73.398438 C 36.652344 73.371094 36.625 73.34375 36.597656 73.3125 C 36.136719 72.847656 35.671875 72.378906 35.210938 71.910156 C 34.921875 71.625 34.636719 71.335938 34.351562 71.046875 C 34.15625 70.847656 33.960938 70.652344 33.765625 70.453125 C 33.652344 70.339844 33.539062 70.226562 33.425781 70.113281 C 33.324219 70.007812 33.21875 69.902344 33.117188 69.796875 C 33.0625 69.742188 33.007812 69.6875 32.953125 69.632812 C 32.808594 69.488281 32.664062 69.34375 32.511719 69.210938 C 32.296875 69.023438 32.101562 68.820312 31.902344 68.621094 C 31.855469 68.574219 31.8125 68.53125 31.765625 68.484375 C 31.644531 68.363281 31.523438 68.242188 31.402344 68.117188 C 31.269531 67.984375 31.140625 67.851562 31.007812 67.71875 C 30.78125 67.488281 30.550781 67.261719 30.324219 67.03125 C 29.996094 66.699219 29.667969 66.367188 29.335938 66.035156 C 28.804688 65.492188 28.269531 64.953125 27.734375 64.414062 C 27.703125 64.382812 27.671875 64.351562 27.636719 64.316406 C 27.410156 64.089844 27.183594 63.859375 26.957031 63.628906 C 26.695312 63.367188 26.4375 63.105469 26.179688 62.84375 C 26.144531 62.8125 26.113281 62.78125 26.082031 62.746094 C 25.546875 62.210938 25.015625 61.671875 24.484375 61.132812 C 24.15625 60.804688 23.824219 60.472656 23.496094 60.140625 C 23.273438 59.914062 23.046875 59.683594 22.824219 59.457031 C 22.691406 59.328125 22.5625 59.195312 22.433594 59.066406 C 22.316406 58.945312 22.195312 58.824219 22.078125 58.707031 C 22.035156 58.664062 21.992188 58.617188 21.949219 58.574219 C 21.890625 58.515625 21.832031 58.457031 21.773438 58.398438 C 21.742188 58.367188 21.707031 58.332031 21.675781 58.300781 C 21.589844 58.214844 21.589844 58.214844 21.472656 58.140625 C 21.457031 58.101562 21.445312 58.058594 21.429688 58.019531 C 21.390625 58.003906 21.351562 57.992188 21.3125 57.976562 C 21.207031 57.878906 21.109375 57.773438 21.007812 57.671875 C 20.878906 57.535156 20.742188 57.410156 20.59375 57.292969 C 20.332031 57.082031 20.101562 56.847656 19.867188 56.605469 C 19.820312 56.5625 19.773438 56.515625 19.730469 56.46875 C 19.613281 56.351562 19.492188 56.230469 19.375 56.109375 C 19.1875 55.917969 19 55.726562 18.808594 55.535156 C 18.746094 55.46875 18.679688 55.402344 18.613281 55.335938 C 18.574219 55.296875 18.535156 55.253906 18.492188 55.214844 C 18.457031 55.179688 18.421875 55.140625 18.386719 55.105469 C 18.300781 55.023438 18.21875 54.945312 18.128906 54.871094 C 17.9375 54.703125 17.761719 54.527344 17.585938 54.347656 C 17.550781 54.3125 17.515625 54.273438 17.476562 54.238281 C 17.378906 54.140625 17.28125 54.039062 17.183594 53.941406 C 17.078125 53.832031 16.972656 53.726562 16.863281 53.621094 C 16.679688 53.433594 16.496094 53.25 16.3125 53.0625 C 16.046875 52.796875 15.78125 52.527344 15.515625 52.257812 C 15.085938 51.824219 14.652344 51.386719 14.222656 50.953125 C 14.195312 50.925781 14.171875 50.898438 14.144531 50.871094 C 13.933594 50.660156 13.726562 50.449219 13.515625 50.238281 C 13.332031 50.054688 13.148438 49.867188 12.96875 49.683594 C 12.941406 49.65625 12.914062 49.632812 12.890625 49.605469 C 12.457031 49.171875 12.027344 48.738281 11.597656 48.304688 C 11.332031 48.035156 11.066406 47.769531 10.804688 47.5 C 10.621094 47.316406 10.441406 47.132812 10.257812 46.949219 C 10.152344 46.84375 10.050781 46.738281 9.945312 46.632812 C 9.832031 46.519531 9.71875 46.402344 9.601562 46.289062 C 9.570312 46.253906 9.539062 46.222656 9.503906 46.1875 C 9.316406 45.996094 9.121094 45.816406 8.917969 45.640625 C 8.808594 45.542969 8.699219 45.441406 8.59375 45.34375 C 8.53125 45.289062 8.46875 45.230469 8.40625 45.175781 C 8.179688 44.980469 7.972656 44.773438 7.765625 44.5625 C 7.730469 44.527344 7.695312 44.492188 7.660156 44.457031 C 7.601562 44.394531 7.539062 44.332031 7.476562 44.269531 C 7.425781 44.21875 7.378906 44.171875 7.332031 44.121094 C 7.269531 44.058594 7.210938 43.996094 7.15625 43.925781 C 7.039062 43.792969 6.921875 43.664062 6.800781 43.53125 C 6.640625 43.351562 6.484375 43.164062 6.332031 42.976562 C 6.246094 42.871094 6.164062 42.769531 6.074219 42.667969 C 5.839844 42.390625 5.617188 42.101562 5.398438 41.8125 C 5.378906 41.785156 5.355469 41.757812 5.335938 41.726562 C 4.140625 40.132812 3.109375 38.382812 2.304688 36.550781 C 2.296875 36.527344 2.285156 36.5 2.273438 36.472656 C 2.226562 36.363281 2.199219 36.289062 2.199219 36.164062 C 2.171875 36.152344 2.144531 36.140625 2.121094 36.125 C 2.074219 36.023438 2.035156 35.917969 2 35.8125 C 1.976562 35.753906 1.957031 35.699219 1.9375 35.640625 C 1.925781 35.613281 1.917969 35.585938 1.90625 35.554688 C 1.871094 35.460938 1.835938 35.371094 1.800781 35.277344 C 1.664062 34.941406 1.550781 34.605469 1.445312 34.257812 C 1.410156 34.140625 1.371094 34.027344 1.332031 33.914062 C 1.277344 33.753906 1.246094 33.589844 1.21875 33.421875 C 1.210938 33.382812 1.210938 33.382812 1.199219 33.34375 C 1.171875 33.332031 1.148438 33.316406 1.121094 33.304688 C 1.097656 33.21875 1.097656 33.21875 1.082031 33.109375 C 1.039062 32.851562 0.976562 32.601562 0.90625 32.347656 C 0.8125 31.984375 0.722656 31.621094 0.644531 31.257812 C 0.636719 31.21875 0.628906 31.183594 0.621094 31.144531 C 0.585938 30.988281 0.558594 30.835938 0.535156 30.683594 C 0.527344 30.566406 0.527344 30.566406 0.480469 30.480469 C 0.472656 30.417969 0.46875 30.351562 0.460938 30.285156 C 0.449219 30.125 0.429688 29.96875 0.40625 29.808594 C 0.363281 29.550781 0.332031 29.292969 0.296875 29.035156 C 0.289062 28.980469 0.289062 28.980469 0.28125 28.917969 C 0.210938 28.359375 0.191406 27.792969 0.183594 27.226562 C 0.183594 27.195312 0.183594 27.164062 0.183594 27.132812 C 0.179688 26.96875 0.179688 26.808594 0.175781 26.644531 C 0.171875 26.511719 0.171875 26.378906 0.167969 26.246094 C 0.148438 25.105469 0.191406 23.988281 0.339844 22.855469 C 0.347656 22.789062 0.355469 22.71875 0.367188 22.652344 C 0.484375 21.722656 0.484375 21.722656 0.578125 21.367188 C 0.621094 21.210938 0.652344 21.054688 0.675781 20.894531 C 0.714844 20.660156 0.769531 20.4375 0.832031 20.214844 C 0.871094 20.066406 0.910156 19.917969 0.945312 19.769531 C 1.050781 19.324219 1.175781 18.886719 1.3125 18.449219 C 1.347656 18.335938 1.382812 18.21875 1.417969 18.105469 C 1.441406 18.03125 1.460938 17.957031 1.484375 17.882812 C 1.5 17.832031 1.5 17.832031 1.515625 17.78125 C 1.542969 17.699219 1.570312 17.617188 1.597656 17.539062 C 1.625 17.523438 1.652344 17.511719 1.679688 17.5 C 1.699219 17.421875 1.699219 17.421875 1.703125 17.335938 C 1.710938 17.257812 1.710938 17.257812 1.71875 17.175781 C 1.746094 17.175781 1.773438 17.175781 1.800781 17.175781 C 1.8125 17.070312 1.824219 16.964844 1.839844 16.851562 C 1.867188 16.851562 1.890625 16.851562 1.917969 16.851562 C 1.925781 16.824219 1.929688 16.796875 1.9375 16.765625 C 1.957031 16.660156 1.976562 16.554688 2 16.449219 C 2.027344 16.449219 2.050781 16.449219 2.078125 16.449219 C 2.085938 16.421875 2.089844 16.390625 2.09375 16.363281 C 2.121094 16.246094 2.15625 16.152344 2.203125 16.046875 C 2.21875 16.003906 2.238281 15.964844 2.253906 15.925781 C 2.273438 15.882812 2.292969 15.839844 2.3125 15.796875 C 2.339844 15.730469 2.339844 15.730469 2.371094 15.664062 C 2.414062 15.570312 2.453125 15.476562 2.496094 15.382812 C 2.539062 15.289062 2.578125 15.195312 2.621094 15.101562 C 2.847656 14.585938 3.085938 14.085938 3.378906 13.605469 C 3.449219 13.492188 3.515625 13.375 3.582031 13.261719 C 4.109375 12.34375 4.6875 11.457031 5.316406 10.605469 C 5.335938 10.582031 5.351562 10.558594 5.371094 10.535156 C 5.730469 10.050781 6.109375 9.582031 6.496094 9.125 C 6.515625 9.101562 6.535156 9.078125 6.554688 9.054688 C 6.636719 8.960938 6.71875 8.867188 6.808594 8.777344 C 6.902344 8.683594 6.988281 8.589844 7.074219 8.488281 C 7.316406 8.214844 7.578125 7.960938 7.835938 7.699219 C 7.882812 7.652344 7.933594 7.601562 7.984375 7.550781 C 8.074219 7.460938 8.164062 7.371094 8.253906 7.28125 C 8.316406 7.21875 8.375 7.15625 8.4375 7.097656 C 8.480469 7.058594 8.523438 7.019531 8.570312 6.984375 C 8.65625 6.910156 8.734375 6.835938 8.816406 6.753906 C 8.917969 6.652344 9.019531 6.5625 9.128906 6.46875 C 9.191406 6.417969 9.246094 6.359375 9.304688 6.300781 C 9.386719 6.214844 9.453125 6.179688 9.554688 6.128906 C 9.597656 6.089844 9.636719 6.046875 9.675781 6.007812 C 9.742188 5.953125 9.808594 5.898438 9.875 5.847656 C 9.925781 5.804688 9.925781 5.804688 9.976562 5.761719 C 10.074219 5.683594 10.074219 5.683594 10.179688 5.621094 C 10.273438 5.570312 10.273438 5.570312 10.335938 5.503906 C 10.414062 5.425781 10.503906 5.378906 10.597656 5.320312 C 10.625 5.292969 10.625 5.292969 10.652344 5.265625 C 10.722656 5.195312 10.792969 5.148438 10.878906 5.097656 C 10.96875 5.042969 11.039062 4.996094 11.117188 4.917969 C 11.324219 4.730469 11.554688 4.585938 11.796875 4.433594 C 11.824219 4.414062 11.855469 4.394531 11.886719 4.375 C 12.003906 4.300781 12.121094 4.230469 12.246094 4.167969 C 12.351562 4.121094 12.351562 4.121094 12.414062 4.050781 C 12.507812 3.957031 12.632812 3.921875 12.753906 3.871094 C 12.773438 3.851562 12.792969 3.832031 12.816406 3.808594 C 12.910156 3.714844 13.03125 3.679688 13.15625 3.628906 C 13.195312 3.589844 13.234375 3.550781 13.273438 3.507812 C 13.339844 3.480469 13.40625 3.453125 13.472656 3.425781 C 13.582031 3.378906 13.664062 3.324219 13.757812 3.253906 C 13.910156 3.144531 14.066406 3.066406 14.238281 2.988281 C 14.296875 2.960938 14.355469 2.933594 14.417969 2.90625 C 14.445312 2.890625 14.476562 2.878906 14.507812 2.863281 C 14.636719 2.800781 14.765625 2.738281 14.894531 2.671875 C 15.097656 2.566406 15.304688 2.46875 15.515625 2.378906 C 15.5625 2.359375 15.609375 2.335938 15.660156 2.316406 C 15.703125 2.296875 15.746094 2.277344 15.792969 2.257812 C 15.835938 2.238281 15.882812 2.21875 15.925781 2.199219 C 16.074219 2.136719 16.222656 2.078125 16.367188 2.015625 C 16.4375 1.988281 16.507812 1.960938 16.574219 1.933594 C 16.761719 1.855469 16.949219 1.789062 17.140625 1.726562 C 17.238281 1.691406 17.332031 1.652344 17.429688 1.613281 C 17.605469 1.539062 17.785156 1.488281 17.972656 1.441406 C 18.074219 1.410156 18.171875 1.371094 18.273438 1.332031 C 18.464844 1.265625 18.65625 1.210938 18.855469 1.167969 C 19.007812 1.136719 19.152344 1.089844 19.300781 1.035156 C 19.421875 1 19.542969 0.972656 19.667969 0.945312 C 19.742188 0.929688 19.816406 0.910156 19.890625 0.886719 C 20.035156 0.84375 20.179688 0.816406 20.332031 0.785156 C 20.425781 0.765625 20.519531 0.746094 20.613281 0.726562 C 20.898438 0.660156 21.179688 0.605469 21.472656 0.566406 C 21.570312 0.546875 21.667969 0.523438 21.765625 0.503906 C 21.964844 0.460938 22.164062 0.429688 22.371094 0.414062 C 22.539062 0.394531 22.710938 0.371094 22.878906 0.34375 C 23.175781 0.296875 23.472656 0.269531 23.773438 0.25 C 23.886719 0.242188 23.996094 0.234375 24.109375 0.21875 C 24.332031 0.195312 24.558594 0.199219 24.785156 0.203125 C 24.902344 0.203125 25.015625 0.195312 25.132812 0.183594 C 25.398438 0.152344 25.660156 0.15625 25.925781 0.15625 Z M 25.925781 0.15625 "/>
</g>
</svg>
