<?xml version="1.0" encoding="UTF-8"?>
<svg version="1.1" xmlns="http://www.w3.org/2000/svg" width="2476" height="2133">
<path d="M0 0 C0.65802612 0.00088623 1.31605225 0.00177246 1.99401855 0.00268555 C11.60658041 0.01784272 21.17298056 0.29591759 30.765625 0.90625 C33.88156205 1.08576901 36.94383979 1.16374112 40.0625 1.125 C45.27040912 1.06181913 50.38637072 1.59652806 55.5625 2.125 C57.43733134 2.2935533 59.31233182 2.46023627 61.1875 2.625 C69.4573855 3.38317004 77.65584722 4.39416959 85.875 5.58984375 C88.31145994 5.94344016 90.74896322 6.28992862 93.1875 6.62890625 C100.35058033 7.6263966 107.45653874 8.78346159 114.5625 10.125 C116.41650294 10.45924278 118.27067094 10.79257126 120.125 11.125 C130.71676881 13.05351552 141.20793419 15.16655263 151.5625 18.125 C152.93601322 18.42358983 154.31116026 18.71472231 155.6875 19 C160.74237916 20.08566992 165.62593315 21.64771713 170.546875 23.22265625 C173.21634466 24.02142243 175.83215845 24.58972711 178.5625 25.125 C179.96657603 25.55742416 181.36287886 26.01593896 182.75 26.5 C185.98046279 27.6071288 189.21833517 28.61824738 192.5 29.5625 C196.81223904 30.83551029 200.90915065 32.44299339 205.0625 34.15625 C207.53915628 35.11595431 210.01058355 35.89132402 212.5625 36.625 C216.89778295 37.87530104 221.02444637 39.44112748 225.1953125 41.15625 C227.30546304 42.01980996 229.42403053 42.83488277 231.5625 43.625 C240.94353959 47.1120935 250.13668859 51.02601731 259.2734375 55.10546875 C260.69320631 55.73782312 262.11476048 56.36620468 263.5390625 56.98828125 C275.26623211 62.1274077 286.82894256 67.55660542 298.0234375 73.77734375 C300.57352989 75.22059006 300.57352989 75.22059006 303.5625 76.125 C304.2225 76.785 304.8825 77.445 305.5625 78.125 C307.21241582 78.83210678 308.87812256 79.50443989 310.5625 80.125 C310.5625 80.785 310.5625 81.445 310.5625 82.125 C312.1403125 82.49625 312.1403125 82.49625 313.75 82.875 C317.38988728 83.89181062 319.68861204 85.66166746 322.5625 88.125 C323.2225 88.125 323.8825 88.125 324.5625 88.125 C325.2225 88.785 325.8825 89.445 326.5625 90.125 C327.5525 90.455 328.5425 90.785 329.5625 91.125 C330.01625 91.599375 330.47 92.07375 330.9375 92.5625 C332.51406527 94.28075306 332.51406527 94.28075306 334.91064453 95.02807617 C337.60904202 96.14425182 339.37745944 97.3851697 341.6171875 99.23828125 C347.08392005 103.6082718 352.85352442 107.45337951 358.6875 111.3125 C359.73292969 112.01052734 360.77835938 112.70855469 361.85546875 113.42773438 C368.09235003 117.57996741 368.09235003 117.57996741 374.5546875 121.36328125 C377.43162466 123.04834445 379.30550519 124.70576877 381.5625 127.125 C383.06194553 128.38016844 384.58314847 129.60980363 386.125 130.8125 C386.88941406 131.41449219 387.65382813 132.01648438 388.44140625 132.63671875 C390.58424131 134.29115573 390.58424131 134.29115573 393.5625 135.125 C394.59746021 136.08877247 395.59526118 137.09327859 396.5625 138.125 C400.36971329 141.58938365 404.13235998 144.49086269 408.5625 147.125 C409.91750919 148.43629922 411.24921343 149.77191687 412.5625 151.125 C413.531875 151.929375 414.50125 152.73375 415.5 153.5625 C418.5625 156.125 418.5625 156.125 421.1875 158.8125 C423.31524279 161.13994246 423.31524279 161.13994246 425.4921875 162.01953125 C428.70030825 163.73254667 430.52249256 166.45735443 432.78125 169.25 C434.4174366 171.19856386 434.4174366 171.19856386 436.49023438 172.03515625 C438.79512493 173.24734186 439.87138158 174.42008673 441.5 176.4375 C444.72809764 180.25064731 448.14501678 183.79569074 451.6875 187.3125 C452.24187744 187.86357422 452.79625488 188.41464844 453.36743164 188.98242188 C455.09717745 190.6985904 456.82939335 192.41222589 458.5625 194.125 C465.46138348 200.94294686 472.29133936 207.7150465 478.5625 215.125 C480.01695517 216.73268373 481.47470895 218.33739715 482.9375 219.9375 C487.6695658 225.18374612 492.13523585 230.62083376 496.5625 236.125 C497.18511719 236.89070312 497.80773438 237.65640625 498.44921875 238.4453125 C507.45685869 249.5868378 516.10270884 261.01801804 524.5 272.625 C525.01908936 273.34171875 525.53817871 274.0584375 526.07299805 274.796875 C529.2498984 279.21477603 532.29801646 283.69990231 535.26782227 288.25976562 C536.56371567 290.2446741 536.56371567 290.2446741 538.5625 292.125 C539.52980162 293.71137465 540.46089782 295.31988628 541.375 296.9375 C544.14789271 301.76141666 547.03006201 306.4953498 549.98974609 311.20678711 C556.77270808 322.01517069 563.0684658 333.04457774 569.26171875 344.19921875 C577.65905311 362.23239387 577.65905311 362.23239387 590.5625 376.125 C590.8311084 375.57118652 591.0997168 375.01737305 591.37646484 374.44677734 C592.6778014 371.89928648 594.09187844 369.44419116 595.5390625 366.9765625 C596.12316895 365.97850586 596.70727539 364.98044922 597.30908203 363.95214844 C597.92895996 362.89543945 598.54883789 361.83873047 599.1875 360.75 C603.05447207 354.14355568 606.91710928 347.53708868 610.6875 340.875 C611.97640953 338.62341945 613.2682185 336.37349687 614.5625 334.125 C615.11115723 333.1644873 615.11115723 333.1644873 615.67089844 332.18457031 C622.83796501 319.70509848 630.70762328 307.7188994 638.6875 295.75 C639.45368652 294.59936066 639.45368652 294.59936066 640.23535156 293.42547607 C648.97953091 280.31095981 657.87939597 267.33514423 667.625 254.9375 C668.52085815 253.79244995 668.52085815 253.79244995 669.43481445 252.62426758 C674.06388927 246.72333836 678.7541891 240.88130826 683.5625 235.125 C684.18970947 234.37041504 684.18970947 234.37041504 684.82958984 233.60058594 C693.86104932 222.74701881 703.2371895 212.35472299 713.2890625 202.4296875 C715.93567707 199.74669335 718.38641726 196.93586206 720.8359375 194.07421875 C723.91518428 190.59787453 727.24787119 187.37477737 730.5625 184.125 C731.32820313 183.34576172 731.32820313 183.34576172 732.109375 182.55078125 C733.52184872 181.16488633 735.04231708 179.8918191 736.5625 178.625 C741.87246634 174.12233047 746.68035785 169.08000994 751.5625 164.125 C753.5625 162.125 753.5625 162.125 756 160.1875 C758.43878392 158.3002178 758.43878392 158.3002178 760 156.6875 C761.88021453 154.80728547 763.90874958 153.13356561 765.9609375 151.4453125 C767.48685674 150.18735957 768.99398483 148.90671503 770.5 147.625 C773.24400577 145.38499529 776.03037777 143.33551132 778.94921875 141.3359375 C780.65320552 140.05691595 782.07571871 138.64804425 783.5625 137.125 C785.9866967 135.0835712 788.31285699 133.26854473 791.0625 131.6875 C793.72724082 130.15232668 793.72724082 130.15232668 796.125 127.5625 C798.33242758 125.35507242 799.79064193 124.37680687 802.5625 123.125 C804.96386552 121.44404414 807.115512 119.63483027 809.3125 117.6875 C812.24258277 115.20589929 815.34542595 113.60564419 818.828125 112.01953125 C820.75147863 111.13889702 820.75147863 111.13889702 822.5625 109.125 C823.18125 108.83625 823.8 108.5475 824.4375 108.25 C826.66918751 107.20778977 826.66918751 107.20778977 828.390625 105.24609375 C830.61468852 103.07403171 832.75914167 101.62696164 835.4375 100.0625 C836.75041016 99.29292969 836.75041016 99.29292969 838.08984375 98.5078125 C840.0274586 97.42421746 842.00715172 96.41580734 844 95.4375 C846.5229027 94.31718608 846.5229027 94.31718608 847.953125 92.69921875 C849.78853484 90.90390282 851.61732875 89.84156896 853.875 88.625 C855.06996094 87.97724609 855.06996094 87.97724609 856.2890625 87.31640625 C858.09480473 86.37009804 859.91942961 85.45983843 861.75 84.5625 C864.67381424 83.13899802 864.67381424 83.13899802 867.625 81.0625 C870.27591698 79.31402284 872.63842566 78.29462974 875.5625 77.125 C876.92375 76.196875 876.92375 76.196875 878.3125 75.25 C881.56343888 73.12438612 884.74372339 71.63618529 888.31640625 70.15234375 C890.6220302 69.149774 890.6220302 69.149774 892.88671875 67.71875 C896.09385781 65.80851243 899.42468745 64.24284893 902.8125 62.6875 C903.47781738 62.37965576 904.14313477 62.07181152 904.82861328 61.75463867 C909.04605443 59.808009 913.27445246 57.88762369 917.52734375 56.01953125 C918.93929389 55.39892361 920.34794597 54.77077927 921.75390625 54.13671875 C927.29739731 51.63973756 932.90854294 49.35866205 938.5625 47.125 C939.3771875 46.795 940.191875 46.465 941.03125 46.125 C946.24100486 44.01471955 951.48337159 42.0288595 956.7734375 40.12890625 C958.63615469 39.45843242 960.49556296 38.77869512 962.3515625 38.08984375 C966.7450168 36.46240927 971.12324061 34.92628982 975.625 33.625 C979.07777458 32.62364065 982.36557973 31.43691281 985.6875 30.0625 C989.94869933 28.30867305 994.07296756 27.15538449 998.5625 26.125 C1001.68992704 25.25627027 1004.80447522 24.35872431 1007.90625 23.40234375 C1012.73717413 21.91877291 1017.54046985 20.63566984 1022.484375 19.58984375 C1024.34077569 19.17459623 1026.17344352 18.65636189 1028 18.125 C1031.65560598 17.09886499 1035.29835468 16.34525771 1039.0234375 15.625 C1041.37961382 15.16101451 1043.72034316 14.65467504 1046.0625 14.125 C1050.03672616 13.23097373 1054.02280756 12.41585805 1058.01953125 11.62890625 C1059.72687191 11.29058529 1061.4326155 10.94411104 1063.13671875 10.58984375 C1068.2729928 9.52798005 1073.35508889 8.74282844 1078.5625 8.125 C1079.366875 7.96 1080.17125 7.795 1081 7.625 C1084.01771776 7.03617702 1087.02859128 6.71754343 1090.0859375 6.40625 C1094.3338002 5.92384288 1098.55716363 5.28116876 1102.78125 4.625 C1110.2003598 3.49446898 1117.55538359 2.77535856 1125.046875 2.34375 C1128.04645652 2.15710937 1131.01288193 1.88446482 1134 1.5625 C1139.06866023 1.0765665 1144.09006227 1.09649785 1149.17871094 1.14428711 C1154.22311468 1.17309548 1159.21719409 0.95216566 1164.25 0.625 C1179.8624541 -0.34528461 1195.41508549 0.04108639 1211.0234375 0.90625 C1214.87405209 1.11352615 1218.70598192 1.13444068 1222.5625 1.125 C1224.12696927 1.22229923 1225.69005292 1.34638891 1227.25 1.5 C1228.65765625 1.63728516 1228.65765625 1.63728516 1230.09375 1.77734375 C1231.2384375 1.89207031 1232.383125 2.00679688 1233.5625 2.125 C1235.09371798 2.27246828 1236.62497075 2.41957552 1238.15625 2.56640625 C1256.7473356 4.36612763 1275.19207839 6.70724714 1293.5625 10.125 C1294.490625 10.29 1295.41875 10.455 1296.375 10.625 C1302.14182437 11.65021322 1307.85408932 12.81554379 1313.5625 14.125 C1315.06225368 14.45943985 1316.56225611 14.79276606 1318.0625 15.125 C1318.80242187 15.29 1319.54234375 15.455 1320.3046875 15.625 C1321.82976157 15.96273267 1323.35584034 16.29595549 1324.8828125 16.625 C1329.50112343 17.62693864 1334.02848558 18.78158832 1338.5625 20.125 C1342.6577596 21.30632488 1346.76027214 22.45134986 1350.875 23.5625 C1355.37260778 24.78407248 1359.83924199 26.08559425 1364.296875 27.4453125 C1366.20873847 28.01887154 1368.13442513 28.54605137 1370.0625 29.0625 C1372.92315349 29.93091267 1375.55893264 30.91950977 1378.3125 32.0625 C1381.82098811 33.50405403 1385.2615497 34.63027053 1388.9375 35.5625 C1394.14053147 36.9037914 1398.92267225 38.87027719 1403.84765625 41 C1407.02343705 42.31600701 1410.25719596 43.18953659 1413.5625 44.125 C1415.7905383 45.05404993 1417.98143497 46.04879022 1420.17578125 47.0546875 C1422.61452013 48.14832818 1425.07579661 49.14574006 1427.5625 50.125 C1431.53867294 51.69826163 1435.45361998 53.37141287 1439.3515625 55.12890625 C1440.82164516 55.79122264 1442.29563469 56.44493687 1443.7734375 57.08984375 C1449.47128972 59.57890551 1455.01679798 62.31556784 1460.5625 65.125 C1463.3732713 66.5451201 1466.18628197 67.96072899 1469 69.375 C1470.04812866 69.90528809 1470.04812866 69.90528809 1471.11743164 70.44628906 C1473.90746568 71.84827522 1476.59575552 73.13608517 1479.5625 74.125 C1480.2225 74.785 1480.8825 75.445 1481.5625 76.125 C1484.53646197 77.70689467 1487.3650762 79.05919207 1490.5625 80.125 C1491.2225 80.785 1491.8825 81.445 1492.5625 82.125 C1494.55357248 83.14265927 1496.55468823 84.14077854 1498.5625 85.125 C1500.23989862 86.10689187 1501.90717377 87.10633771 1503.5625 88.125 C1504.3875 88.62 1505.2125 89.115 1506.0625 89.625 C1506.8875 90.12 1507.7125 90.615 1508.5625 91.125 C1509.366875 91.599375 1510.17125 92.07375 1511 92.5625 C1516.13341824 95.69263307 1521.06448417 99.1394572 1526.02734375 102.53125 C1527.25185566 103.36602841 1528.47646813 104.20065931 1529.70117188 105.03515625 C1531.60206881 106.33054234 1533.50243757 107.6266672 1535.40112305 108.92529297 C1537.25403731 110.19223059 1539.10923456 111.45576386 1540.96484375 112.71875 C1541.52235825 113.10115845 1542.07987274 113.48356689 1542.65428162 113.87756348 C1545.47516589 115.79323332 1548.3244155 117.5778105 1551.30297852 119.23242188 C1554.64638661 121.17370714 1556.8823426 123.37039379 1559.5625 126.125 C1560.5525 126.455 1561.5425 126.785 1562.5625 127.125 C1564.22916667 128.79166667 1565.89583333 130.45833333 1567.5625 132.125 C1568.5525 132.455 1569.5425 132.785 1570.5625 133.125 C1572.22916667 134.79166667 1573.89583333 136.45833333 1575.5625 138.125 C1576.5525 138.455 1577.5425 138.785 1578.5625 139.125 C1579.58658568 140.1003197 1580.58084406 141.10698643 1581.5625 142.125 C1582.99949901 143.33338553 1584.43759538 144.54055625 1585.88671875 145.734375 C1587.65100821 147.19844737 1589.38912397 148.68988147 1591.125 150.1875 C1593.8895212 152.56401822 1596.70839813 154.85635492 1599.5625 157.125 C1603.45174613 160.28501248 1607.02179678 163.58429678 1610.5625 167.125 C1611.2225 167.62 1611.8825 168.115 1612.5625 168.625 C1614.57595615 170.13509211 1616.28242162 171.81365798 1618.04992676 173.5993042 C1619.72585661 175.28977383 1621.41607347 176.96510493 1623.10839844 178.63916016 C1626.734434 182.22925496 1630.35407884 185.82572355 1633.97167969 189.42431641 C1635.5232527 190.9658563 1637.07661922 192.50559325 1638.63183594 194.04345703 C1647.08462857 202.40464482 1655.31279837 210.67868219 1662.5625 220.125 C1664.89055798 223.01715235 1667.23419108 225.80439011 1669.89453125 228.40234375 C1672.6563024 231.22072515 1675.0965608 234.19268143 1677.5 237.3125 C1677.96672119 237.91344482 1678.43344238 238.51438965 1678.91430664 239.13354492 C1679.92840051 240.43937124 1680.94129722 241.74612794 1681.953125 243.05371094 C1683.61486262 245.19239145 1685.29030465 247.31972475 1686.96875 249.4453125 C1694.84343744 259.44394193 1702.36558788 269.62810339 1709.5625 280.125 C1710.17955811 281.0217041 1710.17955811 281.0217041 1710.80908203 281.93652344 C1722.13276124 298.45697084 1732.85706532 315.48762037 1742.43945312 333.07763672 C1743.68816011 335.35408385 1744.96022244 337.61660771 1746.234375 339.87890625 C1755.5100539 356.41486363 1763.32598315 373.46412654 1770.9375 390.8125 C1771.39813339 391.86153503 1771.39813339 391.86153503 1771.86807251 392.9317627 C1780.5625 412.76560667 1780.5625 412.76560667 1780.5625 417.125 C1781.2225 417.455 1781.8825 417.785 1782.5625 418.125 C1782.89583333 420.45833333 1783.22916667 422.79166667 1783.5625 425.125 C1784.2225 425.455 1784.8825 425.785 1785.5625 426.125 C1786.46312804 428.62179061 1787.25763659 431.08125916 1788 433.625 C1788.44469309 435.10044725 1788.89000075 436.57570941 1789.3359375 438.05078125 C1789.54831055 438.76057129 1789.76068359 439.47036133 1789.97949219 440.20166016 C1790.65208117 442.42052782 1791.3757905 444.61838647 1792.125 446.8125 C1795.64872797 457.24353564 1798.76511564 467.81231261 1801.4375 478.4921875 C1801.60749512 479.17121124 1801.77749023 479.85023499 1801.95263672 480.54983521 C1802.30949718 481.97660118 1802.66577217 483.40351372 1803.02148438 484.83056641 C1803.55944441 486.9877473 1804.0999048 489.14429078 1804.640625 491.30078125 C1806.37212793 498.22354399 1808.05671849 505.14893975 1809.5625 512.125 C1809.87364708 513.47947817 1810.18601794 514.8336762 1810.5 516.1875 C1811.88216356 522.41803415 1813.01974961 528.69653634 1814.16699219 534.97363281 C1814.55519888 537.08528553 1814.95296244 539.1949755 1815.3515625 541.3046875 C1816.95363217 549.91706828 1818.15155544 558.50766081 1819.03515625 567.22265625 C1819.39350375 570.72769469 1819.82931281 574.21918895 1820.28456116 577.71290588 C1827.07798349 630.19401105 1824.54851455 684.13237999 1816.88208008 736.36230469 C1816.5790813 738.98165854 1816.53857821 741.49191415 1816.5625 744.125 C1816.25458308 745.796549 1815.91863097 747.46305547 1815.5625 749.125 C1815.21846692 751.45677975 1814.88300798 753.78987041 1814.5625 756.125 C1813.9025 756.125 1813.2425 756.125 1812.5625 756.125 C1812.76875 756.970625 1812.975 757.81625 1813.1875 758.6875 C1813.62807137 762.72607086 1812.71881823 765.24481946 1811.5625 769.125 C1811.08089465 771.45364127 1810.62324738 773.78734346 1810.1875 776.125 C1808.94445112 782.58241765 1807.34247266 788.89200053 1805.59765625 795.234375 C1804.47209392 799.3808492 1803.51792897 803.56167692 1802.5625 807.75 C1800.89631421 814.98866977 1798.88316795 822.06593398 1796.5625 829.125 C1796.36390381 829.72965088 1796.16530762 830.33430176 1795.96069336 830.95727539 C1784.61732998 865.25332004 1771.83657738 898.83684843 1755.5625 931.125 C1755.05928223 932.13256348 1754.55606445 933.14012695 1754.03759766 934.17822266 C1734.2676178 973.62472202 1710.12504824 1011.41352235 1681.96826172 1045.41943359 C1680.05703721 1047.73826208 1678.18286743 1050.08565185 1676.3125 1052.4375 C1675.06281819 1054.0002545 1673.81281698 1055.56275363 1672.5625 1057.125 C1671.87027344 1057.99253906 1671.17804687 1058.86007812 1670.46484375 1059.75390625 C1665.25340469 1066.21535539 1659.78300275 1072.34623417 1654.12780762 1078.41664124 C1653.00121126 1079.64619557 1651.88938173 1080.88933961 1650.78723145 1082.14085388 C1644.68841564 1089.04521903 1638.24870757 1095.55784837 1631.7149353 1102.04772949 C1629.77080366 1103.97891876 1627.82997055 1105.91337175 1625.88989258 1107.84863281 C1621.78359729 1111.94360671 1617.67332901 1116.03457808 1613.5625 1120.125 C1608.76773436 1124.89613994 1603.97462389 1129.66891945 1599.18566895 1134.44589233 C1597.27262052 1136.35245616 1595.35659095 1138.25598927 1593.44042969 1140.15942383 C1592.27654636 1141.31967743 1591.11280163 1142.48007008 1589.94921875 1143.640625 C1589.41525986 1144.16941757 1588.88130096 1144.69821014 1588.3311615 1145.24302673 C1585.60527378 1147.92550146 1585.60527378 1147.92550146 1583.5625 1151.125 C1582.9025 1151.125 1582.2425 1151.125 1581.5625 1151.125 C1581.5625 1151.785 1581.5625 1152.445 1581.5625 1153.125 C1580.9025 1153.125 1580.2425 1153.125 1579.5625 1153.125 C1579.5625 1153.785 1579.5625 1154.445 1579.5625 1155.125 C1578.9025 1155.125 1578.2425 1155.125 1577.5625 1155.125 C1577.5625 1155.785 1577.5625 1156.445 1577.5625 1157.125 C1576.9025 1157.125 1576.2425 1157.125 1575.5625 1157.125 C1575.5625 1157.785 1575.5625 1158.445 1575.5625 1159.125 C1574.9025 1159.125 1574.2425 1159.125 1573.5625 1159.125 C1573.5625 1159.785 1573.5625 1160.445 1573.5625 1161.125 C1572.9025 1161.125 1572.2425 1161.125 1571.5625 1161.125 C1571.5625 1161.785 1571.5625 1162.445 1571.5625 1163.125 C1570.9025 1163.125 1570.2425 1163.125 1569.5625 1163.125 C1569.5625 1163.785 1569.5625 1164.445 1569.5625 1165.125 C1568.9025 1165.125 1568.2425 1165.125 1567.5625 1165.125 C1567.33680328 1165.67568649 1567.11110657 1166.22637299 1566.87857056 1166.79374695 C1565.15999556 1169.83798586 1562.98032957 1171.95387969 1560.50537109 1174.42504883 C1559.99123657 1174.9410817 1559.47710205 1175.45711456 1558.9473877 1175.98878479 C1557.24841614 1177.69145657 1555.54235512 1179.38682451 1553.8359375 1181.08203125 C1552.6469026 1182.26987293 1551.45823835 1183.45808573 1550.26992798 1184.64665222 C1547.77629498 1187.13872121 1545.27934073 1189.62739707 1542.77978516 1192.11352539 C1539.59410407 1195.28230013 1536.41496086 1198.45753318 1533.23810387 1201.63515186 C1530.78125195 1204.09173009 1528.32178821 1206.54567951 1525.86146927 1208.99878502 C1524.68964652 1210.16744939 1523.5184075 1211.33669941 1522.34778976 1212.50657082 C1520.69967582 1214.15248604 1519.04829063 1215.79505044 1517.39599609 1217.43676758 C1516.92296051 1217.91025635 1516.44992493 1218.38374512 1515.96255493 1218.87158203 C1513.32647557 1221.48335105 1510.61532821 1223.96384551 1507.80199623 1226.38424206 C1503.9630888 1229.73363814 1500.3221429 1233.22951065 1496.73193359 1236.84204102 C1496.09370855 1237.4801172 1495.45548351 1238.11819338 1494.79791832 1238.7756052 C1492.68320683 1240.89100512 1490.57208068 1243.00994566 1488.4609375 1245.12890625 C1486.93603464 1246.65573044 1485.41090235 1248.18232551 1483.88555908 1249.70870972 C1480.61247335 1252.9849464 1477.34094538 1256.26272781 1474.07061768 1259.54171753 C1468.89537942 1264.73052245 1463.71628956 1269.91547151 1458.53662109 1275.09985352 C1447.54228125 1286.10527529 1436.55217255 1297.1149179 1425.5625 1308.125 C1413.69677797 1320.01275853 1401.83032914 1331.899786 1389.95898628 1343.78193188 C1384.81409934 1348.9317901 1379.67165819 1354.0840743 1374.53109741 1359.23825073 C1371.32885662 1362.44797018 1368.12452804 1365.65559915 1364.91963959 1368.86267471 C1363.43855049 1370.34562993 1361.95832314 1371.82944641 1360.47904205 1373.31420517 C1358.45271305 1375.34779846 1356.42326704 1377.37823188 1354.39306641 1379.40795898 C1353.81483816 1379.98978219 1353.23660992 1380.5716054 1352.6408596 1381.17105961 C1349.05122256 1384.75179807 1345.31969951 1388.1088264 1341.48669112 1391.42666364 C1338.66564533 1393.91658504 1336.00827894 1396.55038107 1333.35954285 1399.22116089 C1332.78877134 1399.7924891 1332.21799984 1400.36381731 1331.62993222 1400.9524585 C1329.74332326 1402.84207117 1327.86032095 1404.73523538 1325.97729492 1406.62841797 C1324.61490194 1407.9943722 1323.2522703 1409.36008843 1321.88941956 1410.72558594 C1318.96670489 1413.65482513 1316.0455069 1416.58556541 1313.12544823 1419.51745224 C1308.5001127 1424.16116958 1303.87035499 1428.80046109 1299.23982239 1433.43899536 C1286.0769214 1446.62597981 1272.9199307 1459.81885169 1259.76733398 1473.01611328 C1252.49418274 1480.31388521 1245.21738454 1487.60800127 1237.93672448 1494.89828217 C1233.34105877 1499.50045668 1228.74991919 1504.10708316 1224.16217268 1508.7171514 C1221.29684663 1511.59428223 1218.42727542 1514.46715037 1215.55653954 1517.33888245 C1214.23546814 1518.66208496 1212.91609837 1519.98698912 1211.59865189 1521.31380081 C1204.95567917 1528.00212636 1198.29746593 1534.38335158 1190.91111279 1540.25403976 C1180.90435993 1548.22565467 1171.95473795 1557.59818157 1162.95038414 1566.66195107 C1160.95434605 1568.67102875 1158.95495873 1570.67672322 1156.95478821 1572.6816864 C1152.71698866 1576.9307697 1148.48319546 1581.18383047 1144.25 1585.4375 C1139.31941455 1590.39182442 1134.38712575 1595.3444295 1129.45060158 1600.29283714 C1127.49441258 1602.25543925 1125.54129133 1604.22105794 1123.58830261 1606.18684387 C1122.37762165 1607.40116045 1121.16679833 1608.61533511 1119.95581055 1609.8293457 C1119.15997055 1610.63293518 1119.15997055 1610.63293518 1118.34805298 1611.45275879 C1115.64513842 1614.15604414 1112.88381217 1616.73050536 1109.97523785 1619.21184158 C1105.00908531 1623.54307478 1100.37698442 1628.18128357 1095.7303772 1632.85032654 C1094.75991276 1633.82178894 1093.78922321 1634.7930265 1092.81833017 1635.76406056 C1090.17004948 1638.41397586 1087.52488579 1641.0669831 1084.88023353 1643.72051895 C1082.02054782 1646.58867513 1079.15790774 1649.4538799 1076.29559326 1652.31941223 C1071.34286663 1657.2784212 1066.39186771 1662.23914955 1061.44194412 1667.20095634 C1054.28409831 1674.37580577 1047.12251839 1681.54691905 1039.95983772 1688.71694148 C1028.33608569 1700.35262412 1016.713843 1711.98981284 1005.09326172 1723.62866211 C1004.3985065 1724.32450746 1003.70375127 1725.0203528 1002.98794286 1725.73728437 C993.11089405 1735.62997053 983.23532885 1745.52413644 973.36034314 1755.41888196 C972.66376877 1756.11684964 971.9671944 1756.81481733 971.24951172 1757.53393555 C970.55378735 1758.23105345 969.85806298 1758.92817135 969.14125605 1759.64641403 C957.55745874 1771.25321336 945.96982922 1782.85617797 934.37902582 1794.45598084 C927.22883565 1801.61203368 920.08193162 1808.77133803 912.93917184 1815.93480761 C908.05266757 1820.83497815 903.16260246 1825.73157568 898.26966603 1830.62532353 C895.44357313 1833.45212309 892.61918195 1836.28057265 889.79909134 1839.11336136 C887.22160039 1841.70239776 884.63961704 1844.2868609 882.05386476 1846.86764575 C880.66850354 1848.25278218 879.28811988 1849.64289135 877.9078747 1851.03312582 C877.09371163 1851.84392349 876.27954856 1852.65472116 875.44071388 1853.49008846 C874.73497345 1854.19713041 874.02923301 1854.90417236 873.3021065 1855.63263983 C871.5625 1857.125 871.5625 1857.125 869.5625 1857.125 C869.5625 1857.785 869.5625 1858.445 869.5625 1859.125 C868.9025 1859.125 868.2425 1859.125 867.5625 1859.125 C867.5625 1859.785 867.5625 1860.445 867.5625 1861.125 C866.9025 1861.125 866.2425 1861.125 865.5625 1861.125 C865.5625 1861.785 865.5625 1862.445 865.5625 1863.125 C864.9025 1863.125 864.2425 1863.125 863.5625 1863.125 C863.5625 1863.785 863.5625 1864.445 863.5625 1865.125 C862.9025 1865.125 862.2425 1865.125 861.5625 1865.125 C861.5625 1865.785 861.5625 1866.445 861.5625 1867.125 C860.9025 1867.125 860.2425 1867.125 859.5625 1867.125 C859.5625 1867.785 859.5625 1868.445 859.5625 1869.125 C858.9025 1869.125 858.2425 1869.125 857.5625 1869.125 C857.5625 1869.785 857.5625 1870.445 857.5625 1871.125 C856.9025 1871.125 856.2425 1871.125 855.5625 1871.125 C855.5625 1871.785 855.5625 1872.445 855.5625 1873.125 C854.9025 1873.125 854.2425 1873.125 853.5625 1873.125 C853.5625 1873.785 853.5625 1874.445 853.5625 1875.125 C852.9025 1875.125 852.2425 1875.125 851.5625 1875.125 C851.5625 1875.785 851.5625 1876.445 851.5625 1877.125 C850.27886963 1878.3886261 850.27886963 1878.3886261 848.39160156 1879.92700195 C842.01309532 1885.35866871 836.20409737 1891.36054581 830.296875 1897.29296875 C828.9690143 1898.6227514 827.64092369 1899.9523045 826.31262207 1901.28164673 C823.46515285 1904.13226386 820.61924156 1906.9844239 817.77453613 1909.83779907 C813.27140474 1914.35451311 808.76440775 1918.86735666 804.25683594 1923.37963867 C794.68908741 1932.95846253 785.12557392 1942.54150956 775.5625 1952.125 C765.23656271 1962.47298248 754.90989378 1972.82022839 744.57832718 1983.16259098 C740.10246827 1987.64341637 735.62905542 1992.12666496 731.15753174 1996.61181641 C728.37047398 1999.40636096 725.5813213 2002.1988075 722.79161072 2004.99070358 C721.50402714 2006.28015081 720.21730405 2007.570458 718.93153381 2008.86171341 C707.15688226 2020.68498914 707.15688226 2020.68498914 701.14653778 2025.76581573 C698.488811 2028.04627929 696.04726372 2030.53535983 693.59375 2033.03125 C693.06914185 2033.55964478 692.54453369 2034.08803955 692.00402832 2034.63244629 C690.35433919 2036.29416351 688.70798606 2037.95912137 687.0625 2039.625 C674.52877145 2052.3140595 674.52877145 2052.3140595 668.21679688 2057.69335938 C665.8755853 2059.71946101 663.72154157 2061.90760596 661.5625 2064.125 C658.05801943 2067.66681903 654.487479 2071.03129338 650.703125 2074.26953125 C647.12676551 2077.36947789 643.66043688 2080.59071647 640.17578125 2083.79296875 C633.08008794 2090.125 633.08008794 2090.125 630.5625 2090.125 C630.2325 2091.115 629.9025 2092.105 629.5625 2093.125 C628.22916667 2093.45833333 626.89583333 2093.79166667 625.5625 2094.125 C625.2325 2095.115 624.9025 2096.105 624.5625 2097.125 C623.23946283 2097.4971042 621.90512065 2097.83130173 620.5625 2098.125 C620.2325 2098.785 619.9025 2099.445 619.5625 2100.125 C614.60246411 2104.08555596 609.75984679 2107.50188536 603.5625 2109.125 C602.881875 2109.49625 602.20125 2109.8675 601.5 2110.25 C599.09354794 2111.3367848 597.17420568 2111.19558664 594.5625 2111.125 C594.2325 2111.455 593.9025 2111.785 593.5625 2112.125 C590.49768979 2112.2863058 588.50700722 2112.10650241 585.5625 2111.125 C584.799375 2110.99867188 584.03625 2110.87234375 583.25 2110.7421875 C580.05211439 2110.00778935 577.48035396 2108.74614451 574.5625 2107.25 C573.551875 2106.73695313 572.54125 2106.22390625 571.5 2105.6953125 C565.92922326 2102.71731749 565.92922326 2102.71731749 563.5625 2101.125 C563.5625 2100.465 563.5625 2099.805 563.5625 2099.125 C561.9125 2098.465 560.2625 2097.805 558.5625 2097.125 C558.5625 2096.465 558.5625 2095.805 558.5625 2095.125 C556.9125 2094.465 555.2625 2093.805 553.5625 2093.125 C553.5625 2092.465 553.5625 2091.805 553.5625 2091.125 C551.9125 2090.465 550.2625 2089.805 548.5625 2089.125 C548.5625 2088.465 548.5625 2087.805 548.5625 2087.125 C547.9025 2087.125 547.2425 2087.125 546.5625 2087.125 C546.5625 2086.465 546.5625 2085.805 546.5625 2085.125 C544.9125 2084.465 543.2625 2083.805 541.5625 2083.125 C541.5625 2082.465 541.5625 2081.805 541.5625 2081.125 C540.9025 2081.125 540.2425 2081.125 539.5625 2081.125 C539.5625 2080.465 539.5625 2079.805 539.5625 2079.125 C538.6653125 2078.7228125 538.6653125 2078.7228125 537.75 2078.3125 C535.56528087 2077.12650961 534.26779205 2075.90443518 532.5625 2074.125 C531.5725 2073.465 530.5825 2072.805 529.5625 2072.125 C529.0675 2070.64 529.0675 2070.64 528.5625 2069.125 C527.25466586 2068.40960355 525.91657561 2067.74845927 524.5625 2067.125 C523.28062563 2066.16619966 522.0293707 2065.16506043 520.8125 2064.125 C520.19890625 2063.609375 519.5853125 2063.09375 518.953125 2062.5625 C517.5625 2061.125 517.5625 2061.125 517.5625 2059.125 C516.5725 2058.795 515.5825 2058.465 514.5625 2058.125 C512.84793349 2056.50765117 511.19024424 2054.82970063 509.5625 2053.125 C508.48930547 2052.0354641 507.41367137 2050.94832718 506.3359375 2049.86328125 C505.7790625 2049.30189453 505.2221875 2048.74050781 504.6484375 2048.16210938 C504.08382813 2047.59298828 503.51921875 2047.02386719 502.9375 2046.4375 C502.36515625 2045.85677734 501.7928125 2045.27605469 501.203125 2044.67773438 C500.64882812 2044.12021484 500.09453125 2043.56269531 499.5234375 2042.98828125 C499.02634277 2042.48594971 498.52924805 2041.98361816 498.01708984 2041.46606445 C496.39505322 2039.90058067 496.39505322 2039.90058067 493.5625 2038.125 C493.2325 2037.135 492.9025 2036.145 492.5625 2035.125 C491.5725 2034.795 490.5825 2034.465 489.5625 2034.125 C487.80078125 2032.57446289 487.80078125 2032.57446289 485.875 2030.59765625 C485.17632813 2029.88802734 484.47765625 2029.17839844 483.7578125 2028.44726562 C482.67113281 2027.32868164 482.67113281 2027.32868164 481.5625 2026.1875 C480.127289 2024.71781329 478.68987748 2023.25027143 477.25 2021.78515625 C476.61449219 2021.13168213 475.97898437 2020.47820801 475.32421875 2019.80493164 C473.46518363 2017.93534776 473.46518363 2017.93534776 470.5625 2016.125 C468.26019354 2014.06904337 465.9971898 2011.9900181 463.75 2009.875 C462.68640259 2008.87617798 462.68640259 2008.87617798 461.60131836 2007.85717773 C452.04932568 1998.80011713 442.80938239 1989.42131171 433.5456543 1980.07128906 C432.90185822 1979.423228 432.25806213 1978.77516693 431.59475708 1978.10746765 C430.37054571 1976.87494454 429.14842921 1975.64033621 427.92868042 1974.40339661 C425.02938042 1971.39259261 425.02938042 1971.39259261 421.5625 1969.125 C421.5625 1968.465 421.5625 1967.805 421.5625 1967.125 C420.5725 1966.795 419.5825 1966.465 418.5625 1966.125 C418.2325 1965.135 417.9025 1964.145 417.5625 1963.125 C416.5725 1962.795 415.5825 1962.465 414.5625 1962.125 C414.2325 1961.135 413.9025 1960.145 413.5625 1959.125 C412.5725 1958.795 411.5825 1958.465 410.5625 1958.125 C410.2325 1957.135 409.9025 1956.145 409.5625 1955.125 C408.5725 1954.795 407.5825 1954.465 406.5625 1954.125 C406.2325 1953.135 405.9025 1952.145 405.5625 1951.125 C404.5725 1950.795 403.5825 1950.465 402.5625 1950.125 C401.18022966 1948.92609716 399.85388428 1947.66207178 398.56123829 1946.36704063 C397.74508417 1945.55425191 396.92893005 1944.74146319 396.08804399 1943.90404451 C395.19175757 1943.00125029 394.29547115 1942.09845607 393.37202454 1941.16830444 C392.41036222 1940.2067981 391.448259 1939.24573256 390.48575181 1938.28507197 C387.83549559 1935.63735485 385.19153317 1932.98342869 382.54851592 1930.32848811 C379.69925134 1927.46855549 376.84421905 1924.61439137 373.98985291 1921.759552 C369.04135619 1916.80868986 364.09648688 1911.85422836 359.15398598 1906.89738083 C351.99970813 1899.72243576 344.83944894 1892.55348409 337.67761185 1885.38608535 C326.04804763 1873.74725744 314.42259047 1862.10433652 302.80004883 1850.45849609 C302.10403996 1849.76109391 301.40803109 1849.06369173 300.69093104 1848.34515615 C299.99407647 1847.64690604 299.29722189 1846.94865594 298.57925051 1846.22924674 C288.71279584 1836.34304946 278.84538933 1826.45780355 268.97680664 1816.57373047 C268.28316107 1815.87899405 267.5895155 1815.18425763 266.87485037 1814.46846859 C255.30057785 1802.87615961 243.72426525 1791.28588928 232.14690846 1779.69666064 C225.0067963 1772.54896456 217.86876787 1765.39919888 210.7334381 1758.24672861 C205.83995622 1753.34165816 200.94476481 1748.43829839 196.04824028 1743.5362653 C193.22472157 1740.70942246 190.40205239 1737.88174438 187.58161545 1735.05182648 C184.995972 1732.45750732 182.40799115 1729.86554324 179.81819453 1727.2753702 C178.44565289 1725.90141607 177.07560726 1724.52496986 175.70567304 1723.14841592 C172.10744803 1719.55347868 168.50707965 1716.01985945 164.64554596 1712.70762539 C159.30088129 1708.10884729 154.38167532 1703.07561882 149.40837097 1698.08439636 C148.29424871 1696.96999368 147.17990409 1695.85581325 146.06535798 1694.74183446 C143.01995522 1691.6967258 139.97766564 1688.64852367 136.93588793 1685.59979451 C133.64875135 1682.30626164 130.35869051 1679.01565223 127.06896973 1675.72470093 C121.37462528 1670.02747495 115.68205862 1664.3284777 109.99065208 1658.62831688 C101.75914256 1650.38423884 93.52438269 1642.14341355 85.28873662 1633.90346805 C71.92226003 1620.52993049 58.55765367 1607.15452574 45.19458008 1593.77758789 C44.39541565 1592.97759565 43.59625122 1592.17760341 42.77286968 1591.35336898 C37.09853089 1585.67312816 31.42425866 1579.99282086 25.75 1574.3125 C19.25956922 1567.81513786 12.76910573 1561.3178084 6.27856445 1554.82055664 C5.47886064 1554.0200247 4.67915683 1553.21949276 3.85521957 1552.39470228 C-9.46499481 1539.06081602 -22.78716223 1525.72888276 -36.11073226 1512.39834958 C-44.32952202 1504.17507345 -52.54652515 1495.95001963 -60.76125213 1487.7226849 C-66.38346024 1482.09206946 -72.00741854 1476.46320627 -77.63277528 1470.83573654 C-80.88099288 1467.58617033 -84.12836311 1464.33576834 -87.37356377 1461.08318901 C-90.34119874 1458.10883168 -93.31110233 1455.13675978 -96.28286334 1452.16652504 C-97.36026613 1451.08884966 -98.43681131 1450.0103161 -99.51243279 1448.93086281 C-100.96920903 1447.46913606 -102.4290077 1446.01049694 -103.88963032 1444.55261517 C-104.70131273 1443.74001096 -105.51299513 1442.92740676 -106.34927398 1442.09017819 C-108.47746372 1439.97827191 -108.47746372 1439.97827191 -111.4375 1438.125 C-111.7675 1437.135 -112.0975 1436.145 -112.4375 1435.125 C-113.4275 1434.795 -114.4175 1434.465 -115.4375 1434.125 C-118.036199 1431.64442369 -120.51959328 1429.08891708 -122.99609375 1426.48828125 C-126.28975609 1423.09983726 -129.70437364 1420.07373317 -133.4152832 1417.14501953 C-139.89983126 1411.8684898 -145.73696988 1406.06084635 -151.60546875 1400.1171875 C-152.73591378 1398.98044869 -153.86689116 1397.84423908 -154.99836731 1396.70852661 C-157.94715814 1393.74657359 -160.89029456 1390.77907398 -163.83172607 1387.80981445 C-168.54651124 1383.05154177 -173.26827263 1378.30021704 -177.99334145 1373.55215836 C-179.62638988 1371.90902319 -181.25590836 1370.26245001 -182.88505554 1368.615448 C-183.9000564 1367.59360984 -184.91517204 1366.57188569 -185.93041992 1365.55029297 C-186.80325119 1364.66920868 -187.67608246 1363.78812439 -188.57536316 1362.88034058 C-190.69219134 1360.8424986 -192.81391748 1358.92604007 -195.04236317 1357.01971626 C-199.77043511 1352.89403013 -204.19590892 1348.49953275 -208.62182617 1344.05419922 C-209.51323146 1343.16294279 -210.40463675 1342.27168636 -211.32305431 1341.35342216 C-213.77732436 1338.89944546 -216.22848506 1336.44238402 -218.67912436 1333.98478222 C-221.33035218 1331.32714514 -223.98451683 1328.67244384 -226.63833618 1326.01739502 C-231.23097415 1321.42187798 -235.82183419 1316.82459111 -240.41152954 1312.22613525 C-247.05556352 1305.56951354 -253.70286445 1298.91616176 -260.3510474 1292.26368403 C-271.14952765 1281.45814502 -281.94613791 1270.65073977 -292.74121094 1259.84179688 C-293.38654246 1259.19563754 -294.03187399 1258.5494782 -294.69676101 1257.88373828 C-299.93242961 1252.64132545 -305.1680075 1247.39882204 -310.40358162 1242.15631485 C-314.98027502 1237.57356858 -319.55700465 1232.9908585 -324.13378906 1228.40820312 C-324.77832909 1227.76283498 -325.42286911 1227.11746683 -326.08694065 1226.45254207 C-336.84316819 1215.68261718 -347.60136807 1204.91466456 -358.3609705 1194.14811134 C-364.99053774 1187.5140703 -371.61832391 1180.87825939 -378.24380231 1174.24013472 C-382.78442111 1169.69107432 -387.32682015 1165.14379673 -391.87060905 1160.59790277 C-394.48959249 1157.97757787 -397.10774669 1155.35643821 -399.7236824 1152.73307037 C-402.5641263 1149.88458726 -405.40846998 1147.04002959 -408.25317383 1144.19580078 C-409.07264087 1143.37273878 -409.89210791 1142.54967678 -410.73640728 1141.70167351 C-415.47626025 1136.97027643 -420.35689805 1132.48631513 -425.4375 1128.125 C-428.14633166 1125.67831334 -430.83914908 1123.21505627 -433.53125 1120.75 C-435.08023871 1119.35091343 -436.63387032 1117.95639786 -438.2175293 1116.59667969 C-443.82852442 1111.77862655 -449.04845706 1106.62932987 -454.25 1101.375 C-455.09498047 1100.52550781 -455.93996094 1099.67601562 -456.81054688 1098.80078125 C-458.36811018 1097.23455794 -459.92463696 1095.66730258 -461.47973633 1094.09863281 C-462.68468234 1092.88391981 -463.89274939 1091.672282 -465.10595703 1090.46582031 C-466.64842636 1088.91260404 -468.07050708 1087.28279032 -469.5 1085.625 C-472.38460971 1082.30314419 -475.33401456 1079.05038697 -478.3125 1075.8125 C-482.40187787 1071.32837072 -486.28369021 1066.72232762 -490.09375 1062 C-492.18766189 1059.43146808 -494.31920686 1056.90468393 -496.47412109 1054.38769531 C-502.37825697 1047.48547442 -507.98472653 1040.38837634 -513.4375 1033.125 C-513.94619629 1032.45291504 -514.45489258 1031.78083008 -514.97900391 1031.08837891 C-544.89219887 991.50500857 -570.66207061 948.06858639 -590.75 902.6875 C-591.03407715 902.04941406 -591.3181543 901.41132812 -591.61083984 900.75390625 C-592.78915193 898.01343219 -593.4375 896.14720151 -593.4375 893.125 C-594.0975 892.795 -594.7575 892.465 -595.4375 892.125 C-596.51885663 889.55090106 -597.50328641 887.00189762 -598.4375 884.375 C-598.95791959 882.94255795 -599.47874394 881.51026288 -600 880.078125 C-600.24790283 879.39194092 -600.49580566 878.70575684 -600.7512207 877.9987793 C-601.59796736 875.68686874 -602.50811292 873.40484341 -603.4375 871.125 C-606.79129889 862.78168979 -609.69071826 854.38424654 -612.30859375 845.7890625 C-613.19342717 842.91718101 -614.12862162 840.08392042 -615.125 837.25 C-616.49340629 833.26778393 -617.23744395 829.24534594 -617.91015625 825.09375 C-618.17119141 824.11921875 -618.17119141 824.11921875 -618.4375 823.125 C-619.0975 822.795 -619.7575 822.465 -620.4375 822.125 C-620.95385742 820.06933594 -620.95385742 820.06933594 -621.35546875 817.359375 C-622.42312342 810.90978438 -624.05283238 804.68349623 -625.75 798.375 C-628.11819205 789.41085344 -630.35021843 780.43714617 -632.3125 771.375 C-632.51528564 770.44204102 -632.71807129 769.50908203 -632.92700195 768.54785156 C-633.73601598 764.74426252 -634.49362228 760.964809 -635.0078125 757.109375 C-635.2658742 754.20559769 -635.2658742 754.20559769 -636.4375 752.125 C-636.62113865 750.52472037 -636.75973504 748.91915243 -636.875 747.3125 C-637.20872263 743.31809682 -637.67078971 739.39382958 -638.3125 735.4375 C-639.32207238 729.0764349 -640.18114834 722.70084269 -641 716.3125 C-641.19021729 714.8735437 -641.19021729 714.8735437 -641.38427734 713.40551758 C-643.14620797 699.46252497 -643.60466958 685.46631304 -643.82421875 671.4296875 C-643.83683054 670.66539555 -643.84944233 669.90110359 -643.86243629 669.11365128 C-643.92918008 665.05905828 -643.99154822 661.00442706 -644.05004883 656.94970703 C-644.09795787 653.67479342 -644.15340011 650.40015232 -644.21606445 647.12548828 C-644.75381396 618.83572322 -643.66677224 591.09084191 -639.9375 563 C-639.72188607 561.31129607 -639.50704545 559.62249324 -639.29296875 557.93359375 C-636.34876248 534.93134993 -636.34876248 534.93134993 -633.9375 526.125 C-632.91318348 522.1959053 -632.10725707 518.32684538 -631.5 514.3125 C-630.59418239 508.57318025 -629.16377644 503.06366313 -627.60888672 497.46875 C-626.60669466 493.80746825 -625.69833166 490.12893873 -624.80781555 486.43916321 C-622.1316344 475.41105082 -618.98705598 464.56087573 -615.6159668 453.72680664 C-614.73094642 450.8761278 -613.86034247 448.02127716 -612.99023438 445.16601562 C-612.42793204 443.34609172 -611.86481394 441.52641962 -611.30078125 439.70703125 C-610.91325432 438.43083672 -610.91325432 438.43083672 -610.51789856 437.12886047 C-609.88281369 435.1082884 -609.16766825 433.11318979 -608.4375 431.125 C-607.7775 430.795 -607.1175 430.465 -606.4375 430.125 C-605.97226937 428.22966658 -605.97226937 428.22966658 -605.8125 426.0625 C-605.626875 424.1134375 -605.626875 424.1134375 -605.4375 422.125 C-604.7775 422.125 -604.1175 422.125 -603.4375 422.125 C-603.1075 419.485 -602.7775 416.845 -602.4375 414.125 C-601.7775 414.125 -601.1175 414.125 -600.4375 414.125 C-600.293125 413.403125 -600.14875 412.68125 -600 411.9375 C-599.47916667 409.33333333 -598.95833333 406.72916667 -598.4375 404.125 C-597.7775 404.125 -597.1175 404.125 -596.4375 404.125 C-596.31544189 403.40401123 -596.19338379 402.68302246 -596.06762695 401.94018555 C-595.43369232 399.10798863 -594.52996796 396.7322025 -593.35546875 394.08203125 C-592.92419678 393.10363281 -592.4929248 392.12523437 -592.04858398 391.1171875 C-591.57880127 390.06789063 -591.10901855 389.01859375 -590.625 387.9375 C-589.89228882 386.29201172 -589.89228882 386.29201172 -589.14477539 384.61328125 C-588.10811677 382.29237914 -587.06824198 379.97291128 -586.02539062 377.65478516 C-584.98106821 375.33331937 -583.94059082 373.01011937 -582.90429688 370.68505859 C-577.18911717 357.87752524 -571.28710412 345.46261756 -563.90429688 333.53466797 C-562.19327333 330.72378208 -560.54091322 327.88212171 -558.890625 325.03515625 C-545.64055538 302.2382972 -531.22587053 280.25678842 -515.4375 259.125 C-515.00566406 258.54685547 -514.57382812 257.96871094 -514.12890625 257.37304688 C-505.14434787 245.40763034 -495.64993285 233.81730982 -485.9375 222.4375 C-485.45748535 221.87361572 -484.9774707 221.30973145 -484.48291016 220.72875977 C-482.44386506 218.35751875 -480.37369775 216.06152551 -478.15625 213.85546875 C-475.83771372 211.52693878 -473.67047646 209.14825626 -471.49609375 206.6875 C-465.42703614 199.9052495 -458.95583363 193.53525494 -452.5 187.125 C-451.25692553 185.88695559 -450.01408548 184.64867576 -448.77148438 183.41015625 C-446.51584122 181.16261246 -444.25895845 178.91633236 -442.00024414 176.671875 C-440.47726397 175.1583255 -438.95577216 173.64327216 -437.4375 172.125 C-436.33871049 171.18120347 -435.23391334 170.24438061 -434.125 169.3125 C-431.96739819 167.47520197 -429.94493862 165.63243862 -427.9375 163.625 C-425.44247688 161.12997688 -422.83361243 158.87921176 -420.13671875 156.609375 C-418.60614636 155.27232325 -417.17046137 153.82849535 -415.75 152.375 C-413.63117094 150.31343659 -412.06268681 149.35008718 -409.4375 148.125 C-408.41553008 147.14746356 -407.41770375 146.1444119 -406.4375 145.125 C-404.78364767 143.77580468 -403.115798 142.44366272 -401.4375 141.125 C-400.2 140.1040625 -400.2 140.1040625 -398.9375 139.0625 C-396.4375 137.125 -396.4375 137.125 -393.8125 135.5625 C-391.46220794 134.269102 -391.46220794 134.269102 -389.9375 132.625 C-388.00253396 130.69003396 -385.77860827 129.52966496 -383.4375 128.125 C-382.74333984 127.41537109 -382.74333984 127.41537109 -382.03515625 126.69140625 C-380.27727515 124.96790913 -378.48671842 123.82163678 -376.375 122.5625 C-374.06540849 121.18190619 -372.35244508 120.03994508 -370.4375 118.125 C-365.19939884 113.42413998 -359.40788329 109.82782662 -353.4375 106.125 C-352.68597656 105.64546875 -351.93445313 105.1659375 -351.16015625 104.671875 C-348.18970772 102.77899801 -345.29318958 101.05420621 -342.125 99.5 C-339.47736038 98.33054307 -339.47736038 98.33054307 -338 96.625 C-335.5787249 94.30057591 -332.49939141 93.43723918 -329.4375 92.125 C-328.9425 91.63 -328.4475 91.135 -327.9375 90.625 C-325.57518088 88.26268088 -322.48159504 87.42961216 -319.4375 86.125 C-318.4180881 85.14479625 -317.41503644 84.14696992 -316.4375 83.125 C-314.79198038 82.40772222 -313.12327711 81.74174772 -311.4375 81.125 C-308.71663752 79.94595959 -306.71759554 78.58844199 -304.30859375 76.79296875 C-300.53216907 74.08037385 -296.60740901 72.14519608 -292.375 70.25 C-290.87301957 69.56137348 -289.37172717 68.87124447 -287.87109375 68.1796875 C-287.12714355 67.83776367 -286.38319336 67.49583984 -285.61669922 67.14355469 C-282.35667401 65.61982343 -279.14642395 64.00294623 -275.9375 62.375 C-270.83054089 59.80104581 -265.69669738 57.3699079 -260.4375 55.125 C-259.24125 54.609375 -258.045 54.09375 -256.8125 53.5625 C-255.69875 53.088125 -254.585 52.61375 -253.4375 52.125 C-252.344375 51.650625 -251.25125 51.17625 -250.125 50.6875 C-246.45758394 49.11575026 -242.75524206 47.63617185 -239.046875 46.1640625 C-237.32525877 45.47850873 -235.60641769 44.78593881 -233.890625 44.0859375 C-229.2085987 42.18113798 -224.52050132 40.45881095 -219.7109375 38.90625 C-217.28283165 38.07184936 -214.93248944 37.11187258 -212.5625 36.125 C-208.11424748 34.3068375 -203.63794759 33.0054669 -198.98046875 31.8359375 C-196.3698836 31.10609649 -193.94611225 30.14746755 -191.4375 29.125 C-186.64209351 27.53711706 -181.81894414 26.16400752 -176.875 25.125 C-173.02802393 24.31368694 -169.40613594 23.13416124 -165.6953125 21.84765625 C-162.68514528 20.88419443 -159.6420658 20.23586349 -156.55078125 19.58984375 C-154.6818555 19.17874918 -152.83743404 18.65952627 -151 18.125 C-147.34439402 17.09886499 -143.70164532 16.34525771 -139.9765625 15.625 C-137.62038618 15.16101451 -135.27965684 14.65467504 -132.9375 14.125 C-125.80211677 12.52395111 -118.68488307 11.11973885 -111.4375 10.125 C-108.98966972 9.6521237 -106.5505898 9.14932856 -104.11328125 8.625 C-99.06743742 7.55744957 -94.09704564 6.80015798 -88.95703125 6.37109375 C-84.68773835 5.95409305 -80.45654803 5.28329872 -76.21875 4.625 C-68.77727764 3.49106136 -61.40077697 2.77621378 -53.88671875 2.34375 C-51.06967696 2.16509276 -48.30059838 1.90026061 -45.5 1.5625 C-39.86066868 0.95055253 -34.22485073 1.09617176 -28.5625 1.1875 C-25.61589626 1.19249243 -22.76648526 0.96984337 -19.83984375 0.6328125 C-13.23273514 -0.08071993 -6.63891131 -0.0235482 0 0 Z " fill="#050708" transform="translate(648.4375,3.875)"/>

</svg>
